<?xml version="1.0" encoding="UTF-8"?>
<svg width="130px" height="71px" viewBox="0 0 130 71" version="1.1" xmlns="http://www.w3.org/2000/svg" xmlns:xlink="http://www.w3.org/1999/xlink">
    <title>Artboard</title>
    <g id="Artboard" stroke="none" stroke-width="1" fill="none" fill-rule="evenodd">
        <g id="ACE_V" transform="translate(-0.000000, -0.000000)" fill="#1A1919">
            <path d="M10.2224988,19.9905866 L17.0169597,19.9905866 L13.8808931,9.53843162 L13.3575152,9.53843162 L10.2224988,19.9905866 Z M18.4659639,24.8949354 L8.77559515,24.8949354 L6.68663451,31.888595 L0.134782947,31.888595 L8.856815,5.47953944 C9.38054302,3.95211607 9.66061148,3.63073751 11.1474249,3.63073751 L16.5751517,3.63073751 C18.0213552,3.63073751 18.3427338,3.99237591 18.8685623,5.47953944 L27.5881438,31.888595 L20.5965847,31.888595 L18.4659639,24.8949354 L18.4659639,24.8949354 Z" id="Fill-3"></path>
            <path d="M52.948693,30.5232612 C51.9446476,31.4870468 50.6962424,31.888595 47.8875058,31.888595 L39.2817022,31.888595 C36.5079742,31.888595 35.2221098,31.4870468 34.2191147,30.5232612 C32.6108215,28.9940874 31.4439863,26.4227089 31.4439863,17.820056 C31.4439863,9.17819356 32.6108215,6.6043644 34.2191147,5.1165007 C35.2221098,4.15306519 36.5079742,3.75116695 39.2817022,3.75116695 L47.8875058,3.75116695 C50.6962424,3.75116695 51.9446476,4.15306519 52.948693,5.1165007 C54.4355065,6.52524506 55.1202738,8.65516571 55.198693,13.921503 L48.9286603,13.921503 C48.8082309,10.4244982 48.4479928,9.6602614 48.1273145,9.33818267 C47.8458457,9.05636378 47.483157,8.93593434 46.1969426,8.93593434 L40.9698148,8.93593434 C39.686051,8.93593434 39.321962,9.05636378 39.0408433,9.33818267 C38.6792049,9.6602614 38.1561771,10.6653571 38.1561771,17.820056 C38.1561771,24.975105 38.6792049,25.9385405 39.0408433,26.3008791 C39.321962,26.5427882 39.686051,26.6625175 40.9698148,26.6625175 L46.1969426,26.6625175 C47.483157,26.7034775 47.8458457,26.5427882 48.1273145,26.3008791 C48.4479928,25.9809009 48.8082309,25.2957834 48.9286603,21.3975805 L55.2393029,21.3975805 C55.0810643,27.0647658 54.4355065,29.1152171 52.948693,30.5232612" id="Fill-4"></path>
            <polyline id="Fill-5" points="58.8539365 34.9710985 74.9750272 5.68434189e-14 81.0035009 5.68434189e-14 64.9247705 34.9710985 58.8539365 34.9710985"></polyline>
            <polyline id="Fill-6" points="106.44492 31.888595 85.3442119 31.888595 85.3442119 3.75116695 106.44492 3.75116695 106.44492 8.93593434 91.8943131 8.93593434 91.8943131 14.9654582 103.228334 14.9654582 103.228334 19.9090166 91.8943131 19.9090166 91.8943131 26.7034775 106.44492 26.7034775 106.44492 31.888595"></polyline>
            <path d="M2.00423993,46.2473549 L4.94635911,46.2473549 L3.60028007,42.0911389 L3.35241948,42.0911389 L2.00423993,46.2473549 Z M5.20472227,47.0381982 L1.74587677,47.0381982 L0.931927805,49.565466 L0,49.565466 L2.69040766,41.571962 C2.76077486,41.3237514 2.83219231,41.2642368 3.13851719,41.2642368 L3.88209896,41.2642368 C4.17897153,41.2642368 4.24968881,41.3237514 4.33230901,41.571962 L7.02306675,49.565466 L6.02007157,49.565466 L5.20472227,47.0381982 L5.20472227,47.0381982 Z" id="Fill-7"></path>
            <path d="M15.5007391,49.2332348 C15.2409756,49.4705928 14.9444531,49.565466 14.2019216,49.565466 L11.7569239,49.565466 C11.0143924,49.565466 10.7185701,49.4705928 10.4591567,49.2332348 C10.0331025,48.8323868 9.77473938,48.2309398 9.77473938,45.4320056 C9.77473938,42.6348218 10.0331025,42.0319745 10.4591567,41.6300762 C10.7185701,41.3941186 11.0143924,41.2999455 11.7569239,41.2999455 L14.2019216,41.2999455 C14.9444531,41.2999455 15.2409756,41.3941186 15.5007391,41.6300762 C15.8900342,41.9962658 16.0790804,42.4818344 16.1137389,43.8737747 L15.1926638,43.8737747 C15.1580053,42.7524506 15.0284736,42.4461257 14.8639334,42.2805352 C14.7438541,42.1741092 14.6027696,42.103742 14.1073985,42.103742 L11.8521472,42.103742 C11.3560759,42.103742 11.2146414,42.1741092 11.0970126,42.2805352 C10.9083165,42.4695815 10.7185701,42.8945853 10.7185701,45.4320056 C10.7185701,47.9708262 10.9083165,48.3961802 11.0970126,48.5841761 C11.2146414,48.6909522 11.3560759,48.7620196 11.8521472,48.7620196 L14.1073985,48.7620196 C14.6027696,48.7735724 14.7438541,48.6909522 14.8639334,48.5841761 C15.0284736,48.4189357 15.1580053,48.1357165 15.205967,46.8610549 L16.1259919,46.8610549 C16.0678777,48.4311887 15.8900342,48.8687957 15.5007391,49.2332348" id="Fill-8"></path>
            <path d="M25.003462,49.2332348 C24.7440485,49.4705928 24.4482262,49.565466 23.7046445,49.565466 L21.2599969,49.565466 C20.5185156,49.565466 20.2223432,49.4705928 19.9625797,49.2332348 C19.5365256,48.8323868 19.2788626,48.2309398 19.2788626,45.4320056 C19.2788626,42.6348218 19.5365256,42.0319745 19.9625797,41.6300762 C20.2223432,41.3941186 20.5185156,41.2999455 21.2599969,41.2999455 L23.7046445,41.2999455 C24.4482262,41.2999455 24.7440485,41.3941186 25.003462,41.6300762 C25.3938074,41.9962658 25.5825035,42.4818344 25.6168119,43.8737747 L24.696787,43.8737747 C24.6614283,42.7524506 24.5315466,42.4461257 24.3673565,42.2805352 C24.246927,42.1741092 24.1058425,42.103742 23.6111716,42.103742 L21.3559203,42.103742 C20.8605492,42.103742 20.7180644,42.1741092 20.6004357,42.2805352 C20.4110394,42.4695815 20.2223432,42.8945853 20.2223432,45.4320056 C20.2223432,47.9708262 20.4110394,48.3961802 20.6004357,48.5841761 C20.7180644,48.6909522 20.8605492,48.7620196 21.3559203,48.7620196 L23.6111716,48.7620196 C24.1058425,48.7735724 24.246927,48.6909522 24.3673565,48.5841761 C24.5315466,48.4189357 24.6614283,48.1357165 24.7093901,46.8610549 L25.6297651,46.8610549 C25.5716508,48.4311887 25.3938074,48.8687957 25.003462,49.2332348" id="Fill-9"></path>
            <polygon id="Fill-10" points="29.0529018 49.565466 29.9851797 49.565466 29.9851797 41.2999455 29.0529018 41.2999455"></polygon>
            <path d="M36.2664151,40.4621908 L37.3520305,39.1283647 L38.7215653,39.1283647 L38.7215653,39.1871791 L37.0572584,40.5210051 L36.2664151,40.5210051 L36.2664151,40.4621908 Z M34.8965303,48.5841761 C35.014159,48.6909522 35.1559437,48.7620196 35.652365,48.7620196 L38.0136922,48.7620196 C38.5083632,48.7735724 38.6497977,48.6909522 38.7688268,48.5841761 C38.9697759,48.3961802 39.1465692,47.9708262 39.1465692,45.4320056 C39.1465692,42.8945853 38.9697759,42.4695815 38.7688268,42.2805352 C38.6497977,42.1741092 38.5083632,42.103742 38.0136922,42.103742 L35.652365,42.103742 C35.1559437,42.103742 35.014159,42.1741092 34.8965303,42.2805352 C34.7074841,42.4695815 34.5177377,42.8945853 34.5177377,45.4320056 C34.5177377,47.9708262 34.7074841,48.3961802 34.8965303,48.5841761 Z M38.106815,41.2999455 C38.8633499,41.2999455 39.1584721,41.3941186 39.4056325,41.6300762 C39.8425393,42.0319745 40.0914501,42.6348218 40.0914501,45.4320056 C40.0914501,48.2309398 39.8425393,48.8323868 39.4056325,49.2332348 C39.1584721,49.4705928 38.8633499,49.565466 38.106815,49.565466 L35.5571417,49.565466 C34.8128598,49.565466 34.5177377,49.4705928 34.2593745,49.2332348 C33.8340205,48.8323868 33.5735569,48.2309398 33.5735569,45.4320056 C33.5735569,42.6348218 33.8340205,42.0319745 34.2593745,41.6300762 C34.5177377,41.3941186 34.8128598,41.2999455 35.5571417,41.2999455 L38.106815,41.2999455 L38.106815,41.2999455 Z" id="Fill-11"></path>
            <path d="M49.9715653,49.565466 L49.0158316,49.565466 C48.7221098,49.565466 48.6146336,49.5052513 48.485452,49.2454878 L44.6947254,42.5042399 L44.5529407,42.5042399 L44.5529407,49.565466 L43.6441186,49.565466 L43.6441186,41.2999455 L44.6719698,41.2999455 C44.9663918,41.2999455 45.0605648,41.3717131 45.1907966,41.6300762 L48.9097557,48.1952311 L49.0641435,48.1952311 L49.0641435,41.2999455 L49.9715653,41.2999455 L49.9715653,49.565466" id="Fill-12"></path>
            <path d="M63.4421581,49.2332348 C63.1816944,49.4705928 62.8872724,49.565466 62.1443909,49.565466 L59.6993932,49.565466 C58.9554613,49.565466 58.6613895,49.4705928 58.4009258,49.2332348 C57.976272,48.8323868 57.7161584,48.2309398 57.7161584,45.4320056 C57.7161584,42.6348218 57.976272,42.0319745 58.4009258,41.6300762 C58.6613895,41.3941186 58.9554613,41.2999455 59.6993932,41.2999455 L62.1443909,41.2999455 C62.8872724,41.2999455 63.1816944,41.3941186 63.4421581,41.6300762 C63.8311032,41.9962658 64.0211996,42.4818344 64.0562082,43.8737747 L63.1344329,43.8737747 C63.1001245,42.7524506 62.9705928,42.4461257 62.8043022,42.2805352 C62.6866734,42.1741092 62.5452388,42.103742 62.0488175,42.103742 L59.7942664,42.103742 C59.2974949,42.103742 59.1571106,42.1741092 59.0384316,42.2805352 C58.8493854,42.4695815 58.6613895,42.8945853 58.6613895,45.4320056 C58.6613895,47.9708262 58.8493854,48.3961802 59.0384316,48.5841761 C59.1571106,48.6909522 59.2974949,48.7620196 59.7942664,48.7620196 L62.0488175,48.7620196 C62.5452388,48.7735724 62.6866734,48.6909522 62.8043022,48.5841761 C62.9705928,48.4189357 63.1001245,48.1357165 63.1466859,46.8610549 L64.0684612,46.8610549 C64.0092967,48.4311887 63.8311032,48.8687957 63.4421581,49.2332348" id="Fill-13"></path>
            <path d="M73.7245215,46.2000934 C73.7245215,48.1829781 73.5473782,48.7140579 73.1339272,49.1394119 C72.8167496,49.4471371 72.3549868,49.565466 71.4216586,49.565466 L69.7114906,49.565466 C68.7900653,49.565466 68.3416057,49.4471371 68.0352808,49.1394119 C67.62288,48.726661 67.4443364,48.2067839 67.4443364,46.2000934 L67.4443364,41.2999455 L68.3769644,41.2999455 L68.3769644,46.3653337 C68.3769644,47.9827291 68.5176988,48.31356 68.7316011,48.5260619 C68.8730356,48.6671464 69.0848374,48.7504668 69.8882838,48.7504668 L71.316633,48.7504668 C72.1074763,48.7504668 72.3073751,48.6793994 72.4617629,48.5260619 C72.6742648,48.301307 72.8048467,48.0072351 72.8048467,46.3653337 L72.8048467,41.2999455 L73.7245215,41.2999455 L73.7245215,46.2000934" id="Fill-14"></path>
            <polyline id="Fill-15" points="78.4468259 48.7620196 82.6506535 48.7620196 82.6506535 49.565466 77.5138478 49.565466 77.5138478 41.2999455 78.4468259 41.2999455 78.4468259 48.7620196"></polyline>
            <polyline id="Fill-16" points="87.2658316 42.103742 87.2658316 49.565466 86.3332037 49.565466 86.3332037 42.103742 83.6420958 42.103742 83.6420958 41.2999455 89.9576396 41.2999455 89.9576396 42.103742 87.2658316 42.103742"></polyline>
            <path d="M98.9173798,46.2000934 C98.9173798,48.1829781 98.7412868,48.7140579 98.3285359,49.1394119 C98.0092578,49.4471371 97.5481951,49.565466 96.6159172,49.565466 L94.9043488,49.565466 C93.9829236,49.565466 93.5351642,49.4471371 93.2270888,49.1394119 C92.8143379,48.726661 92.6375447,48.2067839 92.6375447,46.2000934 L92.6375447,41.2999455 L93.5698226,41.2999455 L93.5698226,46.3653337 C93.5698226,47.9827291 93.710557,48.31356 93.9237591,48.5260619 C94.0655438,48.6671464 94.2773456,48.7504668 95.0811421,48.7504668 L96.5105415,48.7504668 C97.3010347,48.7504668 97.5016337,48.6793994 97.6549712,48.5260619 C97.8674732,48.301307 97.9966547,48.0072351 97.9966547,46.3653337 L97.9966547,41.2999455 L98.9173798,41.2999455 L98.9173798,46.2000934" id="Fill-17"></path>
            <path d="M106.639567,45.196398 C107.064221,45.196398 107.241715,45.1134277 107.360044,44.995799 C107.501828,44.8543644 107.690874,44.5707951 107.690874,43.6385172 C107.690874,42.6929361 107.512681,42.4100669 107.371246,42.2689824 C107.253618,42.1506535 107.052668,42.103742 106.661973,42.103742 L103.640034,42.103742 L103.640034,45.196398 L106.639567,45.196398 Z M107.323985,46.2000934 C107.145791,46.0345029 106.898981,45.9749883 106.40361,45.9749883 L103.640034,45.9749883 L103.640034,49.565466 L102.708106,49.565466 L102.708106,41.2999455 L106.886378,41.2999455 C107.466119,41.2999455 107.843162,41.3941186 108.102225,41.6426793 C108.421853,41.9626575 108.622452,42.3866112 108.622452,43.5909056 C108.622452,45.0199549 108.221954,45.4320056 107.394702,45.6091489 L107.394702,45.6214019 C108.209351,45.8097479 108.504123,46.0467559 108.563988,47.3693792 C108.599697,48.3366656 108.634705,49.0690447 108.69352,49.565466 L107.773495,49.565466 C107.690874,49.0095301 107.641862,48.2431928 107.620507,47.3924848 C107.596001,46.5659328 107.501828,46.3530808 107.323985,46.2000934 L107.323985,46.2000934 Z" id="Fill-18"></path>
            <path d="M113.464136,46.2473549 L116.401704,46.2473549 L115.055975,42.0911389 L114.808464,42.0911389 L113.464136,46.2473549 Z M116.661817,47.0381982 L113.202972,47.0381982 L112.388673,49.565466 L111.454995,49.565466 L114.147503,41.571962 C114.21822,41.3237514 114.289637,41.2642368 114.597013,41.2642368 L115.339894,41.2642368 C115.634666,41.2642368 115.705734,41.3237514 115.788704,41.571962 L118.480162,49.565466 L117.476817,49.565466 L116.661817,47.0381982 L116.661817,47.0381982 Z" id="Fill-19"></path>
            <polyline id="Fill-20" points="122.386417 48.7620196 126.590594 48.7620196 126.590594 49.565466 121.455189 49.565466 121.455189 41.2999455 122.386417 41.2999455 122.386417 48.7620196"></polyline>
            <polyline id="Fill-21" points="6.25672942 64.2589077 0.801345885 64.2589077 0.801345885 55.9947876 6.29138789 55.9947876 6.29138789 56.7968337 1.73432395 56.7968337 1.73432395 59.5716119 5.64232924 59.5716119 5.64232924 60.3628054 1.73432395 60.3628054 1.73432395 63.4554613 6.25672942 63.4554613 6.25672942 64.2589077"></polyline>
            <path d="M14.9805119,63.8930683 C14.7438541,64.1283258 14.4014704,64.2589077 13.7758674,64.2589077 L10.9548779,64.2589077 C10.3411778,64.2589077 9.99914424,64.1759375 9.75058348,63.916174 C9.43235569,63.5975961 9.31332659,63.2667652 9.30282402,61.7673487 L10.210946,61.7673487 C10.2351019,62.9240314 10.2946165,63.1368835 10.4353509,63.2776179 C10.5522794,63.3973471 10.7080675,63.4554613 11.0970126,63.4554613 L13.635133,63.4554613 C14.0244282,63.4554613 14.1893185,63.4081998 14.3192002,63.2667652 C14.4728878,63.1134277 14.5439552,62.783297 14.5439552,61.9921036 C14.5439552,61.224366 14.5089466,61.0115139 14.3311032,60.8350708 C14.2019216,60.7177921 14.048234,60.6582776 13.5994243,60.6211685 L11.0143924,60.385911 C10.3653337,60.3270966 10.0229501,60.1972149 9.79749494,59.9724599 C9.5023728,59.6769877 9.40749961,59.2995955 9.40749961,58.2370857 C9.40749961,57.2221876 9.52652871,56.7142135 9.89236813,56.360627 C10.116773,56.1236191 10.4707095,55.9947876 11.0858099,55.9947876 L13.6459857,55.9947876 C14.261086,55.9947876 14.6157227,56.0763576 14.8639334,56.3361211 C15.1926638,56.6669519 15.2882371,57.0096857 15.312393,58.4271822 L14.3913179,58.4271822 C14.3787148,57.3643224 14.3192002,57.1280146 14.1781158,56.9732768 C14.048234,56.855648 13.8948965,56.7968337 13.5175043,56.7968337 L11.2265443,56.7968337 C10.836899,56.7968337 10.6828614,56.8440952 10.5417769,56.9855298 C10.3880893,57.1518204 10.3299751,57.5176599 10.3299751,58.225883 C10.3299751,58.9698148 10.3761864,59.1704139 10.5417769,59.3356543 C10.6723588,59.465536 10.8249961,59.5012447 11.2734557,59.5362533 L13.8595379,59.7718609 C14.4851408,59.8313754 14.8390773,59.9612572 15.0634822,60.1849619 C15.3582542,60.4804341 15.4639801,60.8816322 15.4639801,61.9798506 C15.4639801,63.0773689 15.3354987,63.5503345 14.9805119,63.8930683" id="Fill-22"></path>
            <path d="M22.6893963,60.1741092 C23.1389062,60.1741092 23.338455,60.1268477 23.4812899,59.9962658 C23.6342773,59.8548312 23.8117707,59.559359 23.8117707,58.4852964 C23.8117707,57.3986308 23.6342773,57.1154115 23.4812899,56.9732768 C23.338455,56.8440952 23.1389062,56.7968337 22.6893963,56.7968337 L19.8908122,56.7968337 L19.8908122,60.1741092 L22.6893963,60.1741092 Z M24.1534542,60.6456745 C23.8943909,60.9057881 23.5043955,60.9761553 22.8896452,60.9761553 L19.8908122,60.9761553 L19.8908122,64.2589077 L18.9585343,64.2589077 L18.9585343,55.9947876 L22.8896452,55.9947876 C23.5043955,55.9947876 23.8943909,56.0651548 24.1534542,56.3245682 C24.496188,56.6438463 24.7559515,57.1031585 24.7559515,58.5091022 C24.7559515,59.8670842 24.496188,60.3270966 24.1534542,60.6456745 L24.1534542,60.6456745 Z" id="Fill-23"></path>
            <path d="M29.1701805,60.9411467 L32.1112494,60.9411467 L30.7651704,56.7845807 L30.5162595,56.7845807 L29.1701805,60.9411467 Z M32.3706628,61.7323401 L28.910417,61.7323401 L28.0961179,64.2589077 L27.16384,64.2589077 L29.8559981,56.2657539 C29.9263653,56.0182433 29.9970826,55.9587288 30.3041077,55.9587288 L31.0487397,55.9587288 C31.3417613,55.9587288 31.4135289,56.0182433 31.4964991,56.2657539 L34.1883071,64.2589077 L33.1860121,64.2589077 L32.3706628,61.7323401 L32.3706628,61.7323401 Z" id="Fill-24"></path>
            <path d="M38.6151393,54.3297806 C38.6151393,54.1158783 38.6497977,53.9516882 38.7331181,53.8575152 C38.8052357,53.774895 38.9106115,53.7276334 39.0975572,53.7276334 L39.2407422,53.7276334 C39.4539443,53.7276334 39.6069317,53.774895 39.9612183,53.9047767 L41.3542088,54.4481095 L41.6017193,53.7391862 L42.0631321,53.7391862 L42.0631321,54.5188268 C42.0631321,54.7313288 42.0277735,54.8969192 41.9455033,54.9896919 C41.874436,55.0737125 41.7676599,55.1195737 41.5782636,55.1195737 L41.4371791,55.1195737 C41.2236269,55.1195737 41.0720398,55.0737125 40.7163529,54.9438307 L39.3240625,54.4004979 L39.0758519,55.108721 L38.6151393,55.108721 L38.6151393,54.3297806 Z M43.4907811,64.2589077 L42.5346974,64.2589077 C42.2402754,64.2589077 42.1338494,64.1993932 42.0043177,63.9403299 L38.2142913,57.1976817 L38.0732068,57.1976817 L38.0732068,64.2589077 L37.1636845,64.2589077 L37.1636845,55.9947876 L38.1904855,55.9947876 C38.4856076,55.9947876 38.5790804,56.0651548 38.7093123,56.3245682 L42.4282714,62.889373 L42.5826591,62.889373 L42.5826591,55.9947876 L43.4907811,55.9947876 L43.4907811,64.2589077 L43.4907811,64.2589077 Z" id="Fill-25"></path>
            <path d="M48.3664229,63.2776179 C48.485452,63.3850941 48.6265365,63.4554613 49.1222577,63.4554613 L51.483935,63.4554613 C51.9793061,63.4677143 52.1217909,63.3850941 52.2380193,63.2776179 C52.4393185,63.0896219 52.617162,62.6642679 52.617162,60.1268477 C52.617162,57.5880271 52.4393185,57.1626731 52.2380193,56.9732768 C52.1217909,56.867551 51.9793061,56.7968337 51.483935,56.7968337 L49.1222577,56.7968337 C48.6265365,56.7968337 48.485452,56.867551 48.3664229,56.9732768 C48.1770266,57.1626731 47.9890307,57.5880271 47.9890307,60.1268477 C47.9890307,62.6642679 48.1770266,63.0896219 48.3664229,63.2776179 Z M51.578108,55.9947876 C52.3328925,55.9947876 52.6290649,56.0886105 52.8769255,56.3245682 C53.3131321,56.7264665 53.5616929,57.3282636 53.5616929,60.1268477 C53.5616929,62.9240314 53.3131321,63.5258285 52.8769255,63.9277268 C52.6290649,64.1636845 52.3328925,64.2589077 51.578108,64.2589077 L49.0280846,64.2589077 C48.284853,64.2589077 47.9890307,64.1636845 47.7296172,63.9277268 C47.3035631,63.5258285 47.0427493,62.9240314 47.0427493,60.1268477 C47.0427493,57.3282636 47.3035631,56.7264665 47.7296172,56.3245682 C47.9890307,56.0886105 48.284853,55.9947876 49.0280846,55.9947876 L51.578108,55.9947876 L51.578108,55.9947876 Z" id="Fill-26"></path>
            <polyline id="Fill-27" points="58.0473393 63.4554613 62.2497666 63.4554613 62.2497666 64.2589077 57.1143613 64.2589077 57.1143613 55.9947876 58.0473393 55.9947876 58.0473393 63.4554613"></polyline>
            <path d="M66.4759997,60.9411467 L69.4163684,60.9411467 L68.0713397,56.7845807 L67.8224288,56.7845807 L66.4759997,60.9411467 Z M69.6757819,61.7323401 L66.2169364,61.7323401 L65.4022872,64.2589077 L64.4696593,64.2589077 L67.1611172,56.2657539 C67.2318344,56.0182433 67.3022016,55.9587288 67.6095768,55.9587288 L68.3535086,55.9587288 C68.6482807,55.9587288 68.7200482,56.0182433 68.8023183,56.2657539 L71.4941263,64.2589077 L70.490431,64.2589077 L69.6757819,61.7323401 L69.6757819,61.7323401 Z" id="Fill-28"></path>
        </g>
    </g>
</svg>