<?xml version="1.0" encoding="utf-8"?>
<!-- Generator: Adobe Illustrator 25.4.1, SVG Export Plug-In . SVG Version: 6.00 Build 0)  -->
<svg version="1.1" id="Layer_1" xmlns="http://www.w3.org/2000/svg" xmlns:xlink="http://www.w3.org/1999/xlink" x="0px" y="0px"
	 viewBox="0 0 700 200" style="enable-background:new 0 0 700 200;" xml:space="preserve">
<style type="text/css">
	.st0{fill:#010101;}
</style>
<g>
	<path class="st0" d="M411.8,76.8h-13.6l6.7-20.1h0.1L411.8,76.8z M399.8,44L381,95.9h10.3l3.6-9.7h20.5l3.6,9.7h11.2L410.9,44"/>
	<path class="st0" d="M459.1,77.9c0,6.2-3.5,9.4-8.3,9.4c-5.3,0-8.6-4-8.6-9.4c0-5.4,3.2-9.3,8.6-9.3
		C455.7,68.6,459.1,71.9,459.1,77.9 M431.8,78.1c0,10.9,6.6,18.5,17,18.5c3.5,0,6.9-0.9,10.1-4.2h0.1v2.8c0,6.4-3.5,8.3-8.3,8.3
		c-3,0-5.8-0.8-8.7-3.1l-6.2,7.3c5.3,4.1,11.6,4.8,15.5,4.8c8.2,0,18-2.8,18-17.4V59.9h-8.6l-0.7,4.7h-0.1c-2.3-3.3-6-5.4-11.2-5.4
		C438.8,59.1,431.8,66.8,431.8,78.1"/>
	<path class="st0" d="M501.1,74.1h-14.9c0.8-4.8,4.6-6.5,7.9-6.5C497.1,67.6,500.8,69.2,501.1,74.1 M475.5,77.9
		c0,11.7,8.1,18.7,18.6,18.7c7.1,0,13.9-3.2,17-10.1l-9.1-3.7c-1.6,4.5-5.5,5.3-7.7,5.3c-3.4,0-7.6-1.7-8.1-7.2h25.3
		c0.1-0.8,0.2-1.4,0.2-3.2c0-12.8-7.9-18.6-17.3-18.6C484.4,59.1,475.5,65.5,475.5,77.9"/>
	<path class="st0" d="M527.4,65.8h-0.1l-0.7-5.9h-8.8v36h10.3V75.3c0-4.7,3.9-6.8,6.9-6.8c2.5,0,5.4,1.3,5.4,6.1v21.2h10.4V74.5
		c0-11.5-5.7-15.4-12.3-15.4C533.4,59.1,529.9,61.4,527.4,65.8"/>
	<path class="st0" d="M556.3,77.8c0,10.1,7.6,18.8,18.8,18.8c6.3,0,13-2.7,16.9-10.4l-9.8-3.6c-1.1,2.9-3.9,4.6-7.4,4.6
		c-6,0-8.1-5.1-8.1-9.6c0-4.7,2.4-9.1,8-9.1c3.5,0,5.7,1.7,6.7,4.5l9.8-3.6c-3.2-7.8-9.4-10.3-15.7-10.3
		C563.8,59.1,556.3,67.8,556.3,77.8"/>
	<rect x="596.5" y="59.8" class="st0" width="10.3" height="36"/>
	<path class="st0" d="M595.1,49.4c0,3.7,2.9,6.8,6.6,6.8c3.6,0,6.5-3,6.5-6.8c0-3.7-2.9-6.8-6.5-6.8C598,42.7,595.1,45.7,595.1,49.4
		"/>
	<path class="st0" d="M640.1,77.8c0,6-3.4,9.4-8.3,9.4c-5.3,0-8.5-4-8.5-9.4c0-5.3,3.2-9.3,8.6-9.3
		C636.6,68.6,640.1,71.7,640.1,77.8 M612.9,77.7c0,11.3,7,18.9,16.9,18.9c5.2,0,8.8-2.1,11.2-5.4h0.1l0.7,4.7h8.6v-36h-10.3v3.5H640
		c-3.2-3.4-6.6-4.2-10.1-4.2C619.6,59.1,612.9,66.7,612.9,77.7"/>
	<path class="st0" d="M381.5,131.4c0,16.6,10.9,26.6,26.2,26.6c8.9,0,16.3-3.7,20.7-9.8V129h-23.3v9.4h12.9v7.1
		c-2.6,2.2-6.4,3.2-10.3,3.2c-10.7,0-15.9-7.6-15.9-17.3c0-9.8,5.1-17.2,15.4-17.2c5.3,0,9.5,2.7,11.9,7.8l9.5-4
		c-4.1-8.8-12.2-13.3-21.3-13.3C392,104.7,381.5,115,381.5,131.4"/>
	<path class="st0" d="M445.8,126.3h-0.1l-0.7-5h-8.8v36h10.3v-20.7c0-4.3,4.1-6.6,7.5-6.6c0.8,0,2,0.1,2.9,0.4l1.1-9.4
		c-1.3-0.3-2.3-0.4-3.1-0.4C451.4,120.6,448.5,122,445.8,126.3"/>
	<polyline class="st0" points="478.9,105.5 474,115.5 481.8,115.5 489.9,105.5 	"/>
	<path class="st0" d="M487.2,139.2c0,6-3.4,9.4-8.3,9.4c-5.3,0-8.5-4-8.5-9.3c0-5.3,3.2-9.3,8.6-9.3
		C483.7,130,487.2,133.1,487.2,139.2 M460,139.1c0,11.3,7,18.9,16.9,18.9c5.2,0,8.8-2.1,11.2-5.4h0.1l0.7,4.7h8.6v-36h-10.3v3.5
		h-0.1c-3.1-3.4-6.6-4.2-10.1-4.2C466.7,120.6,460,128.1,460,139.1"/>
	<path class="st0" d="M508.2,116.3v5h-5.4v9.4h5.4v26.6h10.4v-26.6h7.7v-9.4h-7.7v-3.5c0-2.3,1.9-3.5,4.3-3.5c1.1,0,2.2,0.1,4.1,0.9
		v-9.4c-1.6-0.7-4.6-1-6.7-1C512.1,104.7,508.2,109.8,508.2,116.3"/>
	<rect x="532.6" y="121.3" class="st0" width="10.3" height="36"/>
	<path class="st0" d="M531.2,110.9c0,3.7,2.9,6.8,6.6,6.8c3.6,0,6.5-3,6.5-6.8c0-3.7-2.9-6.8-6.5-6.8
		C534.1,104.1,531.2,107.1,531.2,110.9"/>
	<path class="st0" d="M548.7,139.2c0,10.1,7.6,18.8,18.8,18.8c6.3,0,13-2.7,16.9-10.4l-9.8-3.6c-1.1,2.9-3.9,4.6-7.4,4.6
		c-6,0-8.1-5.1-8.1-9.6c0-4.7,2.4-9.1,8-9.1c3.5,0,5.7,1.7,6.7,4.5l9.8-3.6c-3.2-7.8-9.4-10.3-15.7-10.3
		C556.1,120.6,548.7,129.2,548.7,139.2"/>
	<path class="st0" d="M614.5,139.2c0,6-3.4,9.4-8.4,9.4c-5.3,0-8.5-4-8.5-9.3c0-5.3,3.2-9.3,8.6-9.3
		C610.9,130,614.5,133.1,614.5,139.2 M587.2,139.1c0,11.3,7,18.9,16.9,18.9c5.2,0,8.8-2.1,11.2-5.4h0.1l0.7,4.7h8.6v-36h-10.3v3.5
		h-0.1c-3.2-3.4-6.6-4.2-10.1-4.2C593.9,120.6,587.2,128.1,587.2,139.1"/>
	<path class="st0" d="M86.7,79.7H59.1l13.8-33.6H73L86.7,79.7z M72.1,44L50.9,95.9h1.7l5.9-14.5h28.9l6,14.5h1.8L73.9,44"/>
	<path class="st0" d="M137.8,78.7h-23.5l11.6-30.4h0.1L137.8,78.7z M123.9,44l-20.6,51.8h4.1l5.2-13.3h26.4l5.3,13.3h4.5L128.4,44"
		/>
	<path class="st0" d="M191.1,78.4h-21.5l10.7-28.4h0.1L191.1,78.4z M177.6,44l-20.2,51.8h5.3l4.9-12.6h25.3l5,12.6h5.8L183.4,44"/>
	<path class="st0" d="M245.1,78h-19.6l9.7-26.4h0.1L245.1,78z M232,44l-19.9,51.8h6.6l4.5-11.8h24.1l4.6,11.8h7.2L239.1,44"/>
	<path class="st0" d="M299.8,77.6h-17.5l8.7-24.3h0.1L299.8,77.6z M287.1,44l-19.6,51.8h7.8l4.2-11.1h22.9l4.3,11.1h8.5L295.5,44"/>
	<path class="st0" d="M355.3,77.2h-15.6l7.7-22.2h0.1L355.3,77.2z M343,44l-19.2,51.8h9l3.9-10.4h21.7l3.9,10.4h9.8L352.7,44"/>
	<path class="st0" d="M50.4,130.9c0,15,10.3,26.7,24.5,26.7c9.9,0,16.7-5.6,20.4-13.7v-13.5H73.2v1.7h20.3v11.2
		c-1.7,4-7.4,12.7-18.6,12.7c-12.5,0-22.8-10.3-22.8-24.9c0-13.7,9-25,22.7-25c10.3,0,16.6,6.5,18.5,11.9l1.5-0.6
		c-3.2-7.8-10.7-12.9-20.1-12.9C60.6,104.3,50.4,115.9,50.4,130.9"/>
	<path class="st0" d="M103.2,130.9c0,15.5,10.3,26.7,24.8,26.7c9.1,0,16.3-4.4,20.8-12.6v-15.3H126v3.8h18.6v10.6
		c-2.5,5.1-8.6,9.6-16.7,9.6c-11.7,0-20.5-9.3-20.5-22.8c0-13,8.2-22.8,20.4-22.8c9.2,0,14.7,5.6,16.8,10.7l3.9-1.5
		c-2.8-7-10.2-13-20.5-13C114,104.4,103.2,115,103.2,130.9"/>
	<path class="st0" d="M157.4,130.9c0,15.7,10.4,26.7,25,26.7c9.1,0,16.3-4.2,20.8-12v-16.1h-22.9v4.9h17.5v9.9
		c-2.5,4.5-8.1,8.3-15.4,8.3c-11.5,0-19.6-9-19.6-21.7c0-12.4,7.6-21.7,19.4-21.7c8.4,0,13.6,5,15.8,10.2l5-2
		c-3.1-7.3-10.6-13.1-20.7-13.1C168.2,104.4,157.4,114.9,157.4,130.9"/>
	<path class="st0" d="M212.1,131c0,15.9,10.5,26.6,25.3,26.6c9,0,16.3-4.1,20.8-11.4v-16.8h-22.9v6h16.3v9.1
		c-2.5,4-7.6,7.1-14.1,7.1c-11.3,0-18.7-8.6-18.7-20.6c0-11.7,6.9-20.6,18.4-20.6c7.6,0,12.6,4.5,14.8,9.6l6.1-2.5
		c-3.3-7.7-11-13.1-20.9-13.1C222.8,104.4,212.1,114.9,212.1,131"/>
	<path class="st0" d="M268.3,131c0,16.1,10.7,26.6,25.7,26.6c8.9,0,16.3-4,20.7-10.9V129h-23.1v7.2h15.2v8.5
		c-2.6,3.4-7.3,5.8-12.9,5.8c-11.1,0-17.7-8.3-17.7-19.5c0-11.1,6.3-19.4,17.4-19.4c6.8,0,11.6,3.9,13.8,9l7.2-3
		c-3.6-8.1-11.4-13.2-21-13.2C278.9,104.3,268.3,114.7,268.3,131"/>
	<path class="st0" d="M324.2,131c0,16.3,10.8,26.6,26,26.6c8.9,0,16.3-3.9,20.7-10.4v-18.4h-23.1v8.3h14v7.8
		c-2.6,2.8-6.8,4.5-11.6,4.5c-10.9,0-16.8-7.9-16.8-18.4c0-10.4,5.7-18.4,16.3-18.4c6,0,10.6,3.3,12.8,8.4l8.4-3.5
		c-3.8-8.4-11.8-13.2-21.2-13.2C334.7,104.3,324.2,114.6,324.2,131"/>
</g>
</svg>
