<?xml version="1.0" encoding="utf-8"?>
<!-- Generator: Adobe Illustrator 25.4.1, SVG Export Plug-In . SVG Version: 6.00 Build 0)  -->
<svg version="1.1" id="Layer_1" xmlns="http://www.w3.org/2000/svg" xmlns:xlink="http://www.w3.org/1999/xlink" x="0px" y="0px"
	 viewBox="0 0 600 200" style="enable-background:new 0 0 600 200;" xml:space="preserve">
<style type="text/css">
	.st0{fill:#010101;}
</style>
<path class="st0" d="M442.5,121.3v-15.9c0-16.7-43.6-1.8-43.6-29.6c0-12.1,9.6-20.1,26.6-20.1c17.4,0,26.8,9.2,26.8,21.6v0.5h-10.4
	c0-8.9-6.1-12.9-16.7-12.9c-10.8,0-16.2,4.4-16.2,10.4c0,18.8,43.7,2.2,43.7,29.5C452.5,112.1,448.9,117.8,442.5,121.3 M312.4,124.1
	h-7.5c-14.4,0-24.1-7.7-24.1-22.9V65.9h-11.3v-9.3H281V38.2h10.3v62.5c0,10.3,4.6,13.8,13.9,13.8h7.2V124.1z M69.9,108.8V119
	c-7.6,4-12.6,5.9-19.8,5.9c-11.7,0-19.6-7.7-19.6-18.8c0-13.5,10.4-20.2,24.1-20.2h15.3V95H55.3C43.8,95,41,100.4,41,105.8
	c0,5.8,3.6,9.3,9.9,9.3c5.3,0,9.8-1.6,14.5-4L69.9,108.8z M226.1,94.6h-39.3v-9h29.4v-2.2c0-11.7-6.8-18.4-18.5-18.4
	c-4.3,0-8,0.9-10.8,2.6V57.4c3.2-1.1,6.9-1.8,10.8-1.8c16.6,0,28.5,10.9,28.5,27.8V94.6z"/>
<path class="st0" d="M112,124.1H99.6l20-27.7l5.9,8.1L112,124.1z M256.6,33.4v2.4c0,3.5-2.6,5.8-6.2,5.8c-3.7,0-6.3-2.3-6.3-5.8
	v-2.4c0-3.5,2.6-5.8,6.3-5.8C254,27.6,256.6,30,256.6,33.4 M434.5,114.6v9.5c-3,0.5-6.1,0.9-9.5,0.9c-17.4,0-27.8-9.2-27.8-21.6
	v-0.5h10.7c0,8.9,6.4,12.9,17.5,12.9C428.9,115.7,431.9,115.3,434.5,114.6 M311.9,65.9h-12.6v-9.3h12.6V65.9z M255.7,124.1h-10.6
	V56.6h10.6V124.1z M225.8,103.1v0.5c0,12.5-10.9,21.5-28.1,21.5c-16.6,0-29-9.4-29-25.4V83.4c0-9.4,3.7-17,10.1-21.8v37.2
	c0,11.6,8.1,17,18.9,17c11.1,0,18.2-3.9,18.2-12.7H225.8z M161.7,124.1h-12.4l-49.1-67.5h12.5l18.2,25.8l18-25.8H161l-23.8,33.2
	L161.7,124.1z M88,124.1H77.8v-43c0-11.1-6.3-16.5-17.3-16.5c-11.6,0-18.3,4.9-18.3,14.8H32.1v-0.6C32.1,64,44,55.3,60.5,55.3
	c17.4,0,27.6,9.5,27.6,25.1V124.1z M371.5,119.5v-35c0-12.4-7.9-19.3-19.3-19.3c-11.5,0-19.3,6.9-19.3,19.3v12.2
	c0,12.2,7.9,19.3,19.3,19.3c4.4,0,8.2-1,11.3-3v10.7c-3.5,1-7.3,1.8-11.3,1.8c-17,0-29.5-11-29.5-27.8V83.4
	c0-16.9,12.5-27.8,29.5-27.8c17,0,29.5,10.9,29.5,27.8v14.3C381.7,107.1,377.8,114.7,371.5,119.5"/>
<path class="st0" d="M487.6,119l-8.8-11.4c-2.5,1.5-3.8,3.4-3.8,5.6c0,1.3,0.3,2.5,1,3.8c0.7,1.2,1.5,2.3,2.7,3.1
	c1.1,0.8,2.3,1.2,3.6,1.2c1,0,2-0.2,2.8-0.6C485.9,120.1,486.7,119.6,487.6,119 M486.6,96.6c0-0.7-0.1-1.3-0.4-1.9
	c-0.3-0.6-0.6-1.1-1.2-1.5c-0.5-0.4-1.2-0.6-1.9-0.6c-1,0-1.9,0.3-2.5,1c-0.6,0.7-0.9,1.4-0.9,2.3c0,1.9,0.9,4.2,2.8,6.7
	c1.2-0.9,2.2-1.8,2.9-2.7C486.2,99.1,486.6,97.9,486.6,96.6 M504.3,117.1c-0.1,1.3-0.4,2.6-0.9,3.9c-0.5,1.2-1.3,2.3-2.3,3.1
	c-1,0.8-2.3,1.3-3.9,1.3c-0.8,0-1.6-0.1-2.3-0.4c-0.7-0.3-1.6-0.7-2.5-1.3c-0.9-0.6-2-1.6-3.3-2.9c-1.7,1.6-3.4,2.7-5.1,3.5
	c-1.7,0.8-3.4,1.1-4.9,1.1c-1.8,0-3.4-0.4-4.9-1.3c-1.4-0.9-2.5-2-3.3-3.4c-0.8-1.4-1.2-2.9-1.2-4.5c0-0.9,0.1-1.9,0.4-3
	c0.3-1.1,1.1-2.4,2.2-3.8c1.2-1.4,2.9-2.7,5.1-3.9c-0.8-1.5-1.5-2.8-1.9-3.9c-0.4-1.1-0.6-2.4-0.6-3.7c0-1.3,0.2-2.4,0.7-3.4
	c0.5-1,1.1-1.8,1.8-2.5c0.8-0.6,1.6-1.1,2.6-1.5c1-0.3,2-0.5,2.9-0.5c1.5,0,2.7,0.3,3.8,1c1.1,0.6,1.9,1.5,2.5,2.5
	c0.6,1,0.9,2,0.9,3.1c0,1.4-0.5,2.9-1.5,4.3c-1,1.4-2.6,2.6-4.5,3.6l7.7,10.1c1-1.2,1.8-2.3,2.5-3.5c0.7-1.2,1.1-2.3,1.1-3.5
	c0-0.4-0.2-0.8-0.5-1.4c-0.3-0.5-1-0.8-2.1-0.8v-2.3h10.3v2.3c-0.9,0.2-1.7,0.5-2.2,0.9c-0.6,0.4-1,0.8-1.5,1.4
	c-0.4,0.6-1.2,1.7-2.2,3.3l-1.1,1.8c-0.9,1.4-1.8,2.7-2.7,3.7c0.8,1.2,1.7,2.2,2.8,3.2c1,0.9,2.1,1.4,3,1.4c0.5,0,0.9-0.1,1.3-0.4
	c0.4-0.2,0.8-0.7,1.1-1.3c0.3-0.6,0.5-1.4,0.6-2.4H504.3z"/>
<path class="st0" d="M540.4,124.3h-2.3c-0.4-1.4-0.9-2.7-1.7-3.9c-1.3,1.3-2.7,2.5-4.3,3.4c-1.6,0.9-3.9,1.4-6.6,1.4
	c-3.1,0-5.9-0.7-8.5-2.2c-2.6-1.5-4.7-3.5-6.2-6.2c-1.5-2.7-2.3-5.7-2.3-9c0-2.4,0.4-4.6,1.3-6.8c0.9-2.2,2.1-4.1,3.6-5.7
	c1.6-1.6,3.4-2.9,5.6-3.9c2.2-0.9,4.5-1.4,7.1-1.4c4.2,0,7.7,1.4,10.5,4.2c0.4-0.7,0.7-1.8,1.1-3.1h2.3l0.4,12.5h-2.4
	c-0.5-2.1-1.2-4-2.4-5.7c-1.1-1.7-2.5-2.9-4.1-3.8c-1.5-0.9-3.2-1.3-4.9-1.3c-1.9,0-3.6,0.5-5.1,1.6c-1.5,1-2.7,2.6-3.6,4.8
	c-0.9,2.1-1.3,4.8-1.3,8c0,3.1,0.4,5.7,1.1,7.8c0.7,2.1,1.6,3.6,2.6,4.7c1.1,1.1,2.1,1.8,3.2,2.2c1.1,0.4,2.1,0.6,3,0.6
	c2.1,0,3.9-0.6,5.5-1.7c1.7-1.1,3-2.5,4.1-4.2c1-1.7,1.8-3.3,2.1-5h2.4V124.3z"/>
<path class="st0" d="M563.5,114.2c0-2.8-0.4-5-1.1-6.4c-0.8-1.4-2.2-2.2-4.4-2.2c-1.4,0-2.5,0.3-3.3,0.9c-0.8,0.6-1.3,1.6-1.6,2.9
	c-0.3,1.3-0.4,3-0.4,5.1c0,2.6,0.3,4.6,1,6.2c0.7,1.6,2.2,2.4,4.5,2.4c1.5,0,2.7-0.4,3.4-1.3c0.8-0.9,1.3-2,1.5-3.3
	C563.4,117.4,563.5,115.9,563.5,114.2 M570.4,114.4c0,2.3-0.5,4.3-1.6,5.9c-1.1,1.7-2.6,3-4.5,3.9c-1.9,0.9-3.9,1.3-6.2,1.3
	c-2.1,0-4.1-0.4-6-1.2c-1.9-0.8-3.4-2.1-4.6-3.7c-1.2-1.7-1.8-3.7-1.8-6.1c0-3.6,1.2-6.4,3.7-8.2c2.5-1.9,5.4-2.8,8.8-2.8
	c2.5,0,4.7,0.5,6.6,1.5c1.8,1,3.2,2.3,4.2,4C570,110.6,570.4,112.4,570.4,114.4"/>
<path class="st0" d="M198.8,156.3c0,3.5-0.7,4.6-3.5,4.6h-5.5v-9.3h5.6C197.9,151.6,198.8,152.3,198.8,156.3 M200.4,172.6h3.3
	l-5.7-9.4c3-0.7,3.8-3.1,3.8-6.9c0-4.3-0.9-7.2-6.1-7.2h-8.8v23.5h2.9v-9.2h5.1L200.4,172.6z"/>
<path class="st0" d="M224.2,160c0-7-1.2-11.3-8.6-11.3c-7.5,0-8.7,4.3-8.7,11.3v1.6c0,7,1.2,11.3,8.7,11.3c7.5,0,8.6-4.3,8.6-11.3
	V160z M221.2,161.6c0,5.9-0.2,8.9-5.7,8.9c-5.4,0-5.7-3-5.7-8.9v-1.4c0-5.9,0.2-8.9,5.7-8.9c5.4,0,5.7,3,5.7,8.9V161.6z"/>
<polygon class="st0" points="234,172.6 236.9,172.6 236.9,151.6 243.7,151.6 243.7,149.1 227.2,149.1 227.2,151.6 234,151.6 "/>
<path class="st0" d="M263.6,149.1h-2.9v16c0,3.5-1.5,5.4-5.4,5.4c-3.9,0-5.4-1.9-5.4-5.4v-16H247v15.7c0,4.4,1.9,8.2,8.3,8.2
	c6.4,0,8.3-3.7,8.3-8.2V149.1z"/>
<polygon class="st0" points="271.8,149.1 268.9,149.1 268.9,172.6 281.7,172.6 281.7,170.1 271.8,170.1 "/>
<path class="st0" d="M297.1,163.7h-7.8l3.9-11.9L297.1,163.7z M303.1,172.6l-8.2-23.5h-3.4l-8.1,23.5h2.9l2.1-6.6h9.3l2.2,6.6H303.1
	z"/>
<path class="st0" d="M314.9,151.2c1.5,0,3.9,0.3,5.4,0.7l0.2-2.6c-1.5-0.4-3.8-0.6-5.8-0.6c-7.5,0-8.6,4-8.6,11.3v1.6
	c0,7,0.7,11.3,8.8,11.3c2,0,4.3-0.3,5.6-0.7l-0.2-2.6c-1.6,0.4-3.8,0.7-5.3,0.7c-5.5,0-6-2-6-9v-1.3
	C309,153.4,309.6,151.2,314.9,151.2"/>
<rect x="324.9" y="149.1" class="st0" width="2.9" height="23.5"/>
<path class="st0" d="M339.5,147.6l6.2-2.8l-0.1-2.6l-6.5,3.4L339.5,147.6z M350.3,160c0-7-1.2-11.3-8.6-11.3
	c-7.5,0-8.6,4.3-8.6,11.3v1.6c0,7,1.2,11.3,8.6,11.3c7.5,0,8.6-4.3,8.6-11.3V160z M347.3,161.6c0,5.9-0.2,8.9-5.7,8.9
	c-5.4,0-5.7-3-5.7-8.9v-1.4c0-5.9,0.2-8.9,5.7-8.9c5.4,0,5.7,3,5.7,8.9V161.6z"/>
<polygon class="st0" points="368.7,172.6 372,172.6 372,149.1 369.2,149.1 369.2,168.2 358.6,149.1 355.3,149.1 355.3,172.6 
	358.1,172.6 358.1,153.7 "/>
<polygon class="st0" points="385.8,172.6 399.3,172.6 399.3,170.1 388.7,170.1 388.7,161.8 398.1,161.8 398.1,159.3 388.7,159.3 
	388.7,151.6 399.3,151.6 399.3,149.1 385.8,149.1 "/>
<rect x="412.4" y="149.1" class="st0" width="2.9" height="23.5"/>
<polygon class="st0" points="441.5,172.6 440.6,149.1 437.5,149.1 431.2,165.5 424.9,149.1 421.8,149.1 420.9,172.6 423.7,172.6 
	424.4,154.5 429.7,168.9 432.6,168.9 438,154.5 438.6,172.6 "/>
<path class="st0" d="M458.9,156.5c0,3.3-0.3,4.9-3.9,4.9h-5.2v-9.8h5.2C458.1,151.6,458.9,152.4,458.9,156.5 M447,172.6h2.9v-8.7
	h5.6c5.4,0,6.4-2.5,6.4-7.5c0-4.8-0.9-7.4-6.5-7.4H447V172.6z"/>
<path class="st0" d="M478.1,156.3c0,3.5-0.7,4.6-3.6,4.6H469v-9.3h5.6C477.2,151.6,478.1,152.3,478.1,156.3 M479.7,172.6h3.3
	l-5.8-9.4c3-0.7,3.8-3.1,3.8-6.9c0-4.3-0.9-7.2-6.1-7.2h-8.8v23.5h2.9v-9.2h5.1L479.7,172.6z"/>
<polygon class="st0" points="486.7,172.6 500.2,172.6 500.2,170.1 489.6,170.1 489.6,161.8 499,161.8 499,159.3 489.6,159.3 
	489.6,151.6 500.1,151.6 500.1,149.1 486.7,149.1 "/>
<path class="st0" d="M518.6,166.3c0-4.4-1.6-5.5-6.1-6.7c-4-1.1-5.4-1.4-5.4-4.6c0-2.6,1-3.8,4.7-3.8c2,0,4.2,0.4,5.9,0.9l0.2-2.7
	c-1.7-0.4-4.1-0.7-6.1-0.7c-6.2,0-7.6,2.7-7.6,7c0,4,2.1,5,6,6c4.1,1.1,5.5,1.5,5.5,4.9c0,2.8-1.4,3.9-4.9,3.9
	c-2.1,0-4.5-0.4-6.3-1.1l-0.3,2.7c1.9,0.6,4.3,1,6.6,1C516.9,173,518.6,170.4,518.6,166.3"/>
<rect x="523.3" y="149.1" class="st0" width="2.9" height="23.5"/>
<path class="st0" d="M537.9,147.6l6.2-2.8l-0.1-2.6l-6.5,3.4L537.9,147.6z M548.7,160c0-7-1.2-11.3-8.6-11.3
	c-7.5,0-8.6,4.3-8.6,11.3v1.6c0,7,1.2,11.3,8.6,11.3c7.5,0,8.6-4.3,8.6-11.3V160z M545.7,161.6c0,5.9-0.2,8.9-5.7,8.9
	c-5.5,0-5.7-3-5.7-8.9v-1.4c0-5.9,0.2-8.9,5.7-8.9c5.4,0,5.7,3,5.7,8.9V161.6z"/>
<polygon class="st0" points="567.1,172.6 570.4,172.6 570.4,149.1 567.6,149.1 567.6,168.2 557.1,149.1 553.7,149.1 553.7,172.6 
	556.5,172.6 556.5,153.7 "/>
</svg>
