<?xml version="1.0" encoding="UTF-8"?>
<svg width="167px" height="32px" viewBox="0 0 167 32" version="1.1" xmlns="http://www.w3.org/2000/svg" xmlns:xlink="http://www.w3.org/1999/xlink">
    <title>Artboard Copy</title>
    <g id="Artboard-Copy" stroke="none" stroke-width="1" fill="none" fill-rule="evenodd">
        <g id="cgac-positivo" transform="translate(0.000000, -0.000000)" fill-rule="nonzero">
            <path d="M18.2754717,9.45283019 C16.3849057,7.70769231 13.7671988,6.68969521 11.1979681,6.68969521 C5.13846154,6.68969521 3.44443068e-15,11.6342525 3.44443068e-15,17.6937591 C3.44443068e-15,23.7047896 5.18693759,28.6493469 11.149492,28.6493469 C13.7671988,28.6493469 16.2394775,27.6798258 18.2754717,25.983164 L18.2754717,24.092598 C16.675762,26.0316401 13.5732946,27.3404935 11.101016,27.3404935 C8.58026125,27.3404935 6.01103048,26.0801161 4.21741655,24.3834543 C2.42380261,22.6383164 1.35732946,20.2629898 1.35732946,17.7907112 C1.30885341,12.5552975 5.72017417,7.95007257 11.0525399,7.95007257 C13.6702467,7.95007257 16.5788099,9.30740203 18.2269956,11.3433962 L18.2269956,9.45283019 L18.2754717,9.45283019 Z" id="Path" fill="#000000"></path>
            <path d="M35.4359942,14.2519594 L35.4359942,19.5843251 L40.9622642,19.5843251 C40.6714078,22.5898403 38.4415094,24.092598 35.4844702,24.092598 C31.0246734,24.092598 28.6008708,19.9721335 28.6008708,15.9486212 C28.6008708,11.9735849 30.9277213,7.70769231 35.3875181,7.70769231 C38.1021771,7.70769231 40.0896952,9.35587808 41.0107402,11.8766328 L47.4580552,9.16197388 C45.2281567,4.2658926 41.0592163,1.89056604 35.7268505,1.89056604 C27.3404935,1.89056604 21.5718433,7.46531205 21.5718433,15.9486212 C21.5718433,24.141074 27.2920174,29.71582 35.4844702,29.71582 C39.8473149,29.71582 43.6769231,28.1645864 46.2461538,24.5773585 C48.5730044,21.329463 48.8153846,18.0815675 48.9123367,14.2519594 L35.4359942,14.2519594 L35.4359942,14.2519594 Z" id="Path" fill="#999999"></path>
            <path d="M64.6670537,21.329463 L67.5271408,28.3584906 L68.9329463,28.3584906 L59.9648766,6.25341074 L50.996807,28.3584906 L52.4026125,28.3584906 L55.2626996,21.329463 L64.6670537,21.329463 L64.6670537,21.329463 Z M64.1338171,20.0206096 L55.7474601,20.0206096 L59.9648766,9.69521045 L64.1338171,20.0206096 L64.1338171,20.0206096 Z" id="Shape" fill="#000000"></path>
            <path d="M88.3718433,9.45283019 C86.4812772,7.70769231 83.8635704,6.68969521 81.2943396,6.68969521 C75.2348331,6.68969521 70.0963716,11.6342525 70.0963716,17.6937591 C70.0963716,23.7047896 75.2833091,28.6493469 81.2458636,28.6493469 C83.8635704,28.6493469 86.3358491,27.6798258 88.3718433,25.983164 L88.3718433,24.092598 C86.7721335,26.0316401 83.6696662,27.3404935 81.1973875,27.3404935 C78.6766328,27.3404935 76.107402,26.0801161 74.3137881,24.3834543 C72.5201742,22.6383164 71.453701,20.2629898 71.453701,17.7907112 C71.453701,12.5552975 75.8650218,7.95007257 81.1973875,7.95007257 C83.8150943,7.95007257 86.7236575,9.30740203 88.3718433,11.3433962 L88.3718433,9.45283019 L88.3718433,9.45283019 Z" id="Path" fill="#000000"></path>
            <path d="M101.411901,22.7352685 C100.684761,22.0566038 99.6667634,21.6687954 98.6972424,21.6687954 C96.3703919,21.6687954 94.4313498,23.5593614 94.4313498,25.8862119 C94.4313498,28.1645864 96.4188679,30.0551524 98.6972424,30.0551524 C99.7152395,30.0551524 100.636284,29.667344 101.411901,29.0371553 L101.411901,28.3100145 C100.781713,29.0371553 99.6182874,29.5703919 98.6487663,29.5703919 C97.6792453,29.5703919 96.7097242,29.0856313 96.0310595,28.4554427 C95.3523948,27.7767779 94.9161103,26.904209 94.9161103,25.934688 C94.9161103,23.9471698 96.6127721,22.1535559 98.6487663,22.1535559 C99.6667634,22.1535559 100.781713,22.6867925 101.411901,23.4624093 L101.411901,22.7352685 L101.411901,22.7352685 Z" id="Path" fill="#000000"></path>
            <path d="M105.532366,23.7532656 C103.787228,23.7532656 102.332946,25.1590711 102.332946,26.904209 C102.332946,28.6493469 103.787228,30.0551524 105.532366,30.0551524 C107.277504,30.0551524 108.731785,28.6493469 108.731785,26.904209 C108.683309,25.1590711 107.229028,23.7532656 105.532366,23.7532656 L105.532366,23.7532656 Z M105.532366,24.092598 C107.035123,24.092598 108.343977,25.3529753 108.343977,26.8557329 C108.343977,28.3584906 107.083599,29.6188679 105.532366,29.6188679 C103.981132,29.6188679 102.720755,28.3584906 102.720755,26.8557329 C102.720755,25.3529753 103.981132,24.092598 105.532366,24.092598 L105.532366,24.092598 Z" id="Shape" fill="#000000"></path>
            <polygon id="Path" fill="#000000" points="115.1791 23.8017417 114.791292 23.8017417 114.791292 29.1825835 109.65283 23.7532656 109.65283 29.9582003 110.040639 29.9582003 110.040639 24.6743106 115.1791 30.1521045"></polygon>
            <polygon id="Path" fill="#000000" points="117.845283 24.1895501 119.444993 24.1895501 119.444993 23.8017417 115.906241 23.8017417 115.906241 24.1895501 117.457475 24.1895501 117.457475 29.9582003 117.845283 29.9582003"></polygon>
            <polygon id="Path" fill="#000000" points="123.080697 24.1895501 123.080697 23.8017417 120.172134 23.8017417 120.172134 29.9582003 123.080697 29.9582003 123.080697 29.5703919 120.559942 29.5703919 120.559942 26.7587808 123.032221 26.7587808 123.032221 26.4194485 120.559942 26.4194485 120.559942 24.1895501"></polygon>
            <polygon id="Path" fill="#000000" points="130.449057 29.9582003 130.836865 29.9582003 129.528012 23.6078374 127.249637 29.1825835 125.019739 23.6078374 123.710885 29.9582003 124.050218 29.9582003 125.116691 24.8682148 125.116691 24.8682148 127.249637 30.1521045 129.382583 24.8682148 129.43106 24.8682148"></polygon>
            <path d="M131.951814,27.0496372 L132.630479,27.0496372 C133.115239,27.0496372 133.6,27.0011611 133.987808,26.6618287 C134.327141,26.3709724 134.521045,25.8862119 134.521045,25.4499274 C134.521045,24.9651669 134.327141,24.5288824 133.987808,24.1895501 C133.6,23.8502177 133.163716,23.8502177 132.678955,23.8502177 L131.612482,23.8502177 L131.612482,29.9582003 L132.00029,29.9582003 L132.00029,27.0496372 L131.951814,27.0496372 Z M131.951814,26.6618287 L131.951814,24.1895501 L132.582003,24.1895501 C132.969811,24.1895501 133.35762,24.1895501 133.648476,24.4319303 C133.939332,24.6743106 134.133237,25.062119 134.133237,25.4014514 C134.133237,25.7407837 133.987808,26.0801161 133.745428,26.3224964 C133.406096,26.6133527 133.066763,26.6618287 132.678955,26.6618287 L131.951814,26.6618287 L131.951814,26.6618287 Z" id="Shape" fill="#000000"></path>
            <path d="M138.205225,23.7532656 C136.460087,23.7532656 135.005806,25.1590711 135.005806,26.904209 C135.005806,28.6493469 136.460087,30.0551524 138.205225,30.0551524 C139.950363,30.0551524 141.404644,28.6493469 141.404644,26.904209 C141.404644,25.1590711 139.950363,23.7532656 138.205225,23.7532656 L138.205225,23.7532656 Z M138.205225,24.092598 C139.707983,24.092598 141.016836,25.3529753 141.016836,26.8557329 C141.016836,28.3584906 139.756459,29.6188679 138.205225,29.6188679 C136.653991,29.6188679 135.393614,28.3584906 135.393614,26.8557329 C135.44209,25.3529753 136.702467,24.092598 138.205225,24.092598 L138.205225,24.092598 Z" id="Shape" fill="#000000"></path>
            <path d="M143.392163,27.0496372 C144.41016,27.0496372 145.1373,26.5164006 145.1373,25.4499274 C145.1373,24.9166909 144.943396,24.4319303 144.507112,24.141074 C144.070827,23.8502177 143.586067,23.8502177 143.101306,23.8502177 L142.325689,23.8502177 L142.325689,29.9582003 L142.713498,29.9582003 L142.713498,27.0496372 L142.907402,27.0496372 L144.89492,29.9582003 L145.331205,29.9582003 L143.392163,27.0496372 L143.392163,27.0496372 Z M142.761974,26.6618287 L142.761974,24.1895501 L143.004354,24.1895501 C143.343687,24.1895501 143.779971,24.1895501 144.119303,24.3349782 C144.555588,24.5288824 144.749492,24.9651669 144.749492,25.4499274 C144.749492,25.8377358 144.604064,26.1770682 144.313208,26.4194485 C144.022351,26.7103048 143.634543,26.7103048 143.246734,26.7103048 L142.761974,26.7103048 L142.761974,26.6618287 Z" id="Shape" fill="#000000"></path>
            <path d="M148.433672,22.0566038 L147.609579,23.2685051 L147.900435,23.4139332 L148.918433,22.250508 L148.433672,22.0566038 L148.433672,22.0566038 Z M149.597097,27.9222061 L150.42119,29.9582003 L150.808999,29.9582003 L148.239768,23.6078374 L145.670537,29.9582003 L146.058345,29.9582003 L146.882438,27.9222061 L149.597097,27.9222061 L149.597097,27.9222061 Z M149.451669,27.5828737 L147.076343,27.5828737 L148.288244,24.6258345 L149.451669,27.5828737 L149.451669,27.5828737 Z" id="Shape" fill="#000000"></path>
            <polygon id="Path" fill="#000000" points="157.062409 23.8017417 156.674601 23.8017417 156.674601 29.1825835 151.536139 23.7532656 151.536139 29.9582003 151.923948 29.9582003 151.923948 24.6743106 157.062409 30.1521045"></polygon>
            <polygon id="Path" fill="#000000" points="161.279826 24.1895501 161.279826 23.8017417 158.371263 23.8017417 158.371263 29.9582003 161.279826 29.9582003 161.279826 29.5703919 158.759071 29.5703919 158.759071 26.7587808 161.23135 26.7587808 161.23135 26.4194485 158.759071 26.4194485 158.759071 24.1895501"></polygon>
            <path d="M165.788099,27.9222061 L166.612192,29.9582003 L167,29.9582003 L164.430769,23.6078374 L161.861538,29.9582003 L162.249347,29.9582003 L163.07344,27.9222061 L165.788099,27.9222061 L165.788099,27.9222061 Z M165.642671,27.5828737 L163.267344,27.5828737 L164.479245,24.6258345 L165.642671,27.5828737 L165.642671,27.5828737 Z" id="Shape" fill="#000000"></path>
            <path d="M94.67373,19.0995646 L95.7886792,19.0995646 C96.7097242,19.0995646 97.436865,18.9541364 98.1155298,18.2754717 C98.7457184,17.6937591 99.0365747,16.8696662 99.0365747,16.0455733 C99.0365747,15.1730044 98.6972424,14.3489115 98.0670537,13.7671988 C97.388389,13.1370102 96.6612482,12.991582 95.7886792,12.991582 L94.67373,12.991582 L94.67373,19.0995646 L94.67373,19.0995646 Z M95.1100145,18.7602322 L95.1100145,13.3309144 L95.8371553,13.3309144 C96.6127721,13.3309144 97.2429608,13.4763425 97.8246734,14.0095791 C98.4063861,14.5428157 98.6972424,15.2699565 98.6972424,16.0455733 C98.6972424,16.7727141 98.4063861,17.4998549 97.8731495,17.9846154 C97.2914369,18.566328 96.6127721,18.7117562 95.8371553,18.7117562 L95.1100145,18.7117562 L95.1100145,18.7602322 Z" id="Shape" fill="#000000"></path>
            <polygon id="Path" fill="#000000" points="102.914659 13.3309144 102.914659 12.991582 100.006096 12.991582 100.006096 19.0995646 102.914659 19.0995646 102.914659 18.7602322 100.393904 18.7602322 100.393904 15.9486212 102.866183 15.9486212 102.866183 15.5608128 100.393904 15.5608128 100.393904 13.3309144"></polygon>
            <path d="M112.076633,16.4333817 L113.191582,19.0995646 L113.724819,19.0995646 L110.331495,10.6647315 L106.889695,19.0995646 L107.422932,19.0995646 L108.537881,16.4333817 L112.076633,16.4333817 L112.076633,16.4333817 Z M111.882729,15.9486212 L108.683309,15.9486212 L110.283019,12.022061 L111.882729,15.9486212 L111.882729,15.9486212 Z" id="Shape" fill="#000000"></path>
            <path d="M115.469956,16.1910015 C116.487954,16.1910015 117.215094,15.6577649 117.215094,14.5912917 C117.215094,14.0580552 117.02119,13.5732946 116.584906,13.2824383 C116.148621,12.991582 115.663861,12.991582 115.1791,12.991582 L114.403483,12.991582 L114.403483,19.0995646 L114.791292,19.0995646 L114.791292,16.1910015 L114.985196,16.1910015 L116.972714,19.0995646 L117.408999,19.0995646 L115.469956,16.1910015 L115.469956,16.1910015 Z M114.791292,15.8516691 L114.791292,13.3793904 L115.033672,13.3793904 C115.373004,13.3793904 115.809289,13.3793904 116.148621,13.5248186 C116.584906,13.7187228 116.77881,14.1550073 116.77881,14.6397678 C116.77881,15.0275762 116.633382,15.3669086 116.342525,15.6092888 C116.051669,15.9001451 115.663861,15.9001451 115.276052,15.9001451 L114.791292,15.9001451 L114.791292,15.8516691 Z" id="Shape" fill="#000000"></path>
            <polygon id="Path" fill="#000000" points="119.590421 13.3309144 121.190131 13.3309144 121.190131 12.991582 117.602903 12.991582 117.602903 13.3309144 119.202612 13.3309144 119.202612 19.0995646 119.590421 19.0995646"></polygon>
            <polygon id="Path" fill="#000000" points="124.825835 13.3309144 124.825835 12.991582 121.868795 12.991582 121.868795 19.0995646 124.825835 19.0995646 124.825835 18.7602322 122.256604 18.7602322 122.256604 15.9486212 124.728882 15.9486212 124.728882 15.5608128 122.256604 15.5608128 122.256604 13.3309144"></polygon>
            <path d="M101.411901,1.06647315 C100.684761,0.387808418 99.6667634,-1.72221534e-15 98.6972424,-1.72221534e-15 C96.3703919,-1.72221534e-15 94.4313498,1.89056604 94.4313498,4.21741655 C94.4313498,6.495791 96.4188679,8.38635704 98.6972424,8.38635704 C99.7152395,8.38635704 100.636284,7.99854862 101.411901,7.36835994 L101.411901,6.64121916 C100.781713,7.36835994 99.6182874,7.90159652 98.6487663,7.90159652 C97.6792453,7.90159652 96.7097242,7.41683599 96.0310595,6.78664731 C95.3523948,6.10798258 94.9161103,5.23541364 94.9161103,4.2658926 C94.9161103,2.27837446 96.6127721,0.484760522 98.6487663,0.484760522 C99.6667634,0.484760522 100.781713,1.0179971 101.411901,1.79361393 L101.411901,1.06647315 L101.411901,1.06647315 Z" id="Path" fill="#000000"></path>
            <polygon id="Path" fill="#000000" points="105.629318 2.52075472 105.629318 2.1329463 102.720755 2.1329463 102.720755 8.28940493 105.629318 8.28940493 105.629318 7.90159652 103.108563 7.90159652 103.108563 5.08998549 105.580842 5.08998549 105.580842 4.75065312 103.108563 4.75065312 103.108563 2.52075472"></polygon>
            <polygon id="Path" fill="#000000" points="112.367489 2.1329463 111.979681 2.1329463 111.979681 7.5137881 106.841219 2.08447025 106.841219 8.28940493 107.229028 8.28940493 107.229028 3.00551524 112.367489 8.48330914"></polygon>
            <polygon id="Path" fill="#000000" points="115.033672 2.52075472 116.633382 2.52075472 116.633382 2.1329463 113.046154 2.1329463 113.046154 2.52075472 114.645864 2.52075472 114.645864 8.28940493 115.033672 8.28940493"></polygon>
            <path d="M118.37852,5.3808418 C119.396517,5.3808418 120.123657,4.84760522 120.123657,3.78113208 C120.123657,3.2478955 119.929753,2.76313498 119.493469,2.47227866 C119.057184,2.18142235 118.572424,2.18142235 118.087663,2.18142235 L117.312046,2.18142235 L117.312046,8.28940493 L117.699855,8.28940493 L117.699855,5.3808418 L117.893759,5.3808418 L119.881277,8.28940493 L120.317562,8.28940493 L118.37852,5.3808418 L118.37852,5.3808418 Z M117.748331,4.99303338 L117.748331,2.52075472 L117.990711,2.52075472 C118.330044,2.52075472 118.766328,2.52075472 119.10566,2.66618287 C119.541945,2.86008708 119.735849,3.29637155 119.735849,3.78113208 C119.735849,4.16894049 119.590421,4.50827286 119.299565,4.75065312 C119.008708,5.04150943 118.6209,5.04150943 118.233091,5.04150943 L117.748331,5.04150943 L117.748331,4.99303338 Z" id="Shape" fill="#000000"></path>
            <path d="M124.098694,2.08447025 C122.353556,2.08447025 120.899274,3.49027576 120.899274,5.23541364 C120.899274,6.98055152 122.353556,8.38635704 124.098694,8.38635704 C125.843832,8.38635704 127.298113,6.98055152 127.298113,5.23541364 C127.298113,3.49027576 125.843832,2.08447025 124.098694,2.08447025 L124.098694,2.08447025 Z M124.098694,2.42380261 C125.601451,2.42380261 126.910305,3.68417997 126.910305,5.18693759 C126.910305,6.68969521 125.649927,7.95007257 124.098694,7.95007257 C122.54746,7.95007257 121.287083,6.68969521 121.287083,5.18693759 C121.335559,3.68417997 122.595936,2.42380261 124.098694,2.42380261 L124.098694,2.42380261 Z" id="Shape" fill="#000000"></path>
            <path d="M136.023803,4.31436865 L136.023803,4.79912917 L138.932366,4.79912917 C138.88389,5.67169811 138.641509,6.35036284 137.914369,6.98055152 C137.235704,7.5137881 136.363135,7.90159652 135.490566,7.90159652 C133.454572,7.90159652 131.806386,6.20493469 131.806386,4.21741655 C131.806386,2.27837446 133.503048,0.533236575 135.490566,0.533236575 C136.799419,0.533236575 137.914369,1.21190131 138.641509,2.27837446 L139.077794,1.93904209 C138.205225,0.775616836 137.0418,0.0484760522 135.539042,0.0484760522 C133.212192,0.0484760522 131.273149,1.93904209 131.273149,4.2658926 C131.273149,6.54426705 133.212192,8.43483309 135.490566,8.43483309 C136.653991,8.43483309 137.817417,7.95007257 138.593033,7.12597968 C139.320174,6.35036284 139.465602,5.42931785 139.465602,4.41132075 L136.023803,4.41132075 L136.023803,4.31436865 Z" id="Path" fill="#000000"></path>
            <path d="M143.828447,6.25341074 L144.65254,8.28940493 L145.040348,8.28940493 L142.471118,1.93904209 L139.901887,8.28940493 L140.289695,8.28940493 L141.113788,6.25341074 L143.828447,6.25341074 L143.828447,6.25341074 Z M143.683019,5.91407837 L141.307692,5.91407837 L142.519594,2.95703919 L143.683019,5.91407837 L143.683019,5.91407837 Z" id="Shape" fill="#000000"></path>
            <polygon id="Path" fill="#000000" points="146.155298 2.1329463 145.767489 2.1329463 145.767489 8.28940493 147.706531 8.28940493 147.706531 7.90159652 146.155298 7.90159652"></polygon>
            <polygon id="Path" fill="#000000" points="151.342235 2.52075472 151.342235 2.1329463 148.385196 2.1329463 148.385196 8.28940493 151.342235 8.28940493 151.342235 7.90159652 148.773004 7.90159652 148.773004 5.08998549 151.245283 5.08998549 151.245283 4.75065312 148.773004 4.75065312 148.773004 2.52075472"></polygon>
            <path d="M155.70508,5.33236575 L155.70508,5.72017417 L157.886502,5.72017417 C157.838026,6.3988389 157.644122,6.88359942 157.159361,7.36835994 C156.674601,7.75616836 155.995936,8.04702467 155.365747,8.04702467 C153.814514,8.04702467 152.602612,6.78664731 152.602612,5.2838897 C152.602612,3.82960813 153.86299,2.52075472 155.365747,2.52075472 C156.335269,2.52075472 157.207837,3.00551524 157.741074,3.82960813 L158.080406,3.58722787 C157.450218,2.71465893 156.529173,2.1329463 155.414224,2.1329463 C153.669086,2.1329463 152.214804,3.53875181 152.214804,5.2838897 C152.214804,6.98055152 153.669086,8.38635704 155.365747,8.38635704 C156.238316,8.38635704 157.110885,8.04702467 157.692598,7.41683599 C158.225835,6.83512337 158.371263,6.15645864 158.322787,5.3808418 L155.70508,5.3808418 L155.70508,5.33236575 Z" id="Path" fill="#000000"></path>
            <path d="M162.055443,2.08447025 C160.310305,2.08447025 158.856023,3.49027576 158.856023,5.23541364 C158.856023,6.98055152 160.310305,8.38635704 162.055443,8.38635704 C163.800581,8.38635704 165.254862,6.98055152 165.254862,5.23541364 C165.206386,3.49027576 163.752104,2.08447025 162.055443,2.08447025 L162.055443,2.08447025 Z M162.055443,2.42380261 C163.5582,2.42380261 164.867054,3.68417997 164.867054,5.18693759 C164.867054,6.68969521 163.606676,7.95007257 162.055443,7.95007257 C160.504209,7.95007257 159.243832,6.68969521 159.243832,5.18693759 C159.243832,3.68417997 160.504209,2.42380261 162.055443,2.42380261 L162.055443,2.42380261 Z" id="Shape" fill="#000000"></path>
        </g>
    </g>
</svg>