<?xml version="1.0" encoding="UTF-8"?>
<svg width="167px" height="71px" viewBox="0 0 167 71" version="1.1" xmlns="http://www.w3.org/2000/svg" xmlns:xlink="http://www.w3.org/1999/xlink">
    <title>Artboard</title>
    <g id="Artboard" stroke="none" stroke-width="1" fill="none" fill-rule="evenodd">
        <g id="museo-pobo-galego" fill="#010000" fill-rule="nonzero">
            <g id="Group-Copy">
                <path d="M26.182681,3.41424359 C36.0498348,3.43211921 44.4137964,9.71897508 47.5790693,18.5048427 L45.1386135,18.5048427 C42.0965237,11.0095949 34.7626595,5.72019868 26.1808957,5.71841112 C17.6009172,5.72019868 10.2670529,11.0095949 7.22317792,18.5048427 L4.78450736,18.5048427 C7.94799507,9.71897508 16.3155272,3.43211921 26.182681,3.41424359 L26.182681,3.41424359 Z M19.5129349,41.9308439 C13.4109027,39.3281535 9.13519559,33.2772558 9.12091348,26.214598 C9.13519559,19.1519402 13.4109027,13.1010425 19.5129349,10.4965646 L19.5129349,41.9308439 Z M22.7246247,29.884463 L29.6407372,29.884463 L29.6407372,22.9594475 L22.7246247,22.9594475 L22.7246247,29.884463 Z M43.2426631,26.214598 C43.2283812,33.2772558 38.9526741,39.3281535 32.8506417,41.9308439 L32.8506417,10.4983521 C38.9526741,13.1010425 43.2283812,19.1519402 43.2426631,26.214598 L43.2426631,26.214598 Z M26.182681,49.01674 C16.8439653,48.9988644 8.83884177,43.3734065 5.3218718,35.325802 L7.86587293,35.325802 C11.2185986,42.0666986 18.1489932,46.7089974 26.1808957,46.7107849 C34.2145835,46.7089974 41.1449781,42.0666986 44.4959185,35.325802 L47.041705,35.325802 C43.5247348,43.3734065 35.5196113,48.9988644 26.182681,49.01674 L26.182681,49.01674 Z M26.182681,52.4256209 C40.6415337,52.4256209 52.3582209,40.6920634 52.3635767,26.2181732 C52.3582209,11.7371327 40.6415337,0.00357512418 26.182681,0 C11.722043,0.00357512418 0.00357052787,11.7371327 0,26.2181732 C0.00357052787,40.6920634 11.722043,52.4256209 26.182681,52.4256209 L26.182681,52.4256209 Z" id="Fill-1"></path>
                <path d="M25.7765334,55.7824839 C7.91139716,55.7824839 2.86445599,43.6967767 2.86445599,43.6967767 L2.86445599,53.5444562 C2.86445599,63.3903482 13.6385239,71 22.0935339,71 C30.5503292,71 37.9145429,67.1209903 37.9145429,67.1209903 L37.9145429,63.3921358 C37.9145429,63.3921358 24.8214172,68.3150817 18.1409595,66.3755769 C11.4569314,64.436072 11.319466,60.5570623 11.319466,60.5570623 C11.319466,60.5570623 15.1470719,63.5405034 25.0945626,63.5405034 C35.0402681,63.5405034 48.8171498,56.10067 48.8171498,56.10067 L50.6256223,45.217992 C50.6256223,45.217992 43.6416698,55.7824839 25.7765334,55.7824839" id="Fill-3"></path>
            </g>
            <g id="Group-2-Copy" transform="translate(61.672754, 21.125734)">
                <path d="M12.979919,11.9041311 L14.1102679,11.9041311 L14.1102679,12.375971 L7.65582279,12.375971 L7.65582279,11.9041311 L8.77242422,11.9041311 L8.77242422,2.11555583 L8.74416549,2.11555583 L5.55245725,12.375971 L4.96589783,12.375971 L1.71690838,1.99319864 L1.68864966,1.99319864 L1.68864966,10.418256 C1.68864966,11.0828085 1.71690838,11.9041311 2.67617748,11.9041311 L2.94807222,11.9041311 L2.94807222,12.375971 L0,12.375971 L0,11.9041311 L0.271894743,11.9041311 C1.05932025,11.9041311 1.15860766,11.0124531 1.15860766,10.4534337 L1.15860766,0.73444904 L0.100051156,0.73444904 L0.100051156,0.261844389 L5.28056253,0.261844389 L7.04100461,6.03098596 L8.84421666,0.261844389 L14.1102679,0.261844389 L14.1102679,0.73444904 L12.979919,0.73444904 L12.979919,11.9041311 Z" id="Fill-5"></path>
                <path d="M24.3466468,12.376124 C22.9726618,12.376124 21.5986769,12.5512477 20.2254557,12.6032495 L20.2254557,10.9598395 C19.624385,12.0786431 18.6941384,12.6384272 17.6065594,12.6384272 C16.0889896,12.6384272 15.2740691,11.9746394 15.2740691,9.28201651 L15.2740691,4.52767491 L14.5156661,4.52767491 L14.5156661,4.10783681 C15.9179098,4.10783681 17.3201534,3.95030192 18.7231608,3.89830012 L18.7231608,10.7678917 C18.7231608,11.1525521 18.8804932,11.4676219 19.2386916,11.4676219 C19.9390497,11.4676219 20.1108933,10.260874 20.1108933,9.61467512 L20.1108933,4.52767491 L19.3524903,4.52767491 L19.3524903,4.10783681 C20.7547339,4.10783681 22.1432301,3.95030192 23.5454738,3.89830012 L23.5454738,11.9562859 L24.3466468,11.9562859 L24.3466468,12.376124 Z" id="Fill-7"></path>
                <path d="M25.2513842,9.43962787 C25.75164,10.9079142 27.2546986,12.2186656 28.5714023,12.2186656 C29.0006294,12.2186656 29.5589301,12.1314861 29.5589301,11.4669336 C29.5589301,10.6104332 28.41407,10.3833077 27.2692098,9.87629011 C26.1243496,9.36927249 24.9794894,8.61830522 24.9794894,6.69500314 C24.9794894,4.89482295 26.2671707,3.8631989 27.6411557,3.8631989 C28.2857601,3.8631989 28.7432459,4.02073376 29.6299588,4.38780534 L30.7465602,3.8631989 L31.0612249,3.8631989 L31.1475286,6.852538 L30.8183527,6.852538 C30.3310806,5.52419777 29.1862205,4.283037 27.9413092,4.283037 C27.4838233,4.283037 27.0973662,4.457396 27.0973662,5.10435964 C27.0973662,5.73373446 27.9558204,6.01362653 28.3277663,6.17116142 L29.8590836,6.852538 C30.8466114,7.28920024 31.4759408,8.35600201 31.4759408,9.68357753 C31.4759408,10.5936091 31.1765511,11.5197001 30.5602054,12.0435418 C29.930876,12.5681483 29.172473,12.6385037 28.4430924,12.6385037 C27.8420218,12.6385037 27.2401873,12.2714321 26.6391166,12.0787195 L25.4659977,12.6385037 L25.0795406,12.6385037 L24.9794894,9.43962787 L25.2513842,9.43962787 Z" id="Fill-9"></path>
                <path d="M36.845633,8.37320848 L36.845633,5.96124234 C36.845633,5.34945638 36.9594316,4.28265464 36.2017923,4.28265464 C35.5434402,4.28265464 35.6152329,5.41904704 35.6152329,5.96124234 L35.6152329,8.37320848 L36.845633,8.37320848 Z M35.6152329,8.79304658 L35.6152329,9.52718974 C35.6152329,10.9251207 35.8298462,12.0263354 37.1602975,12.0263354 C38.2196179,12.0263354 39.178887,11.2050127 39.7791938,10.1909775 L40.0510887,10.418103 C39.1926344,11.9391559 37.9904932,12.6381213 36.4454284,12.6381213 C35.6152329,12.6381213 34.8705774,12.5677659 34.0976629,12.1662814 C32.881774,11.5369066 32.0088087,10.3133347 32.0088087,8.25085128 C32.0088087,5.45422472 33.8975608,3.86358126 36.0589712,3.86358126 C38.5342827,3.86358126 40.2519548,5.69893913 40.2229323,8.79304658 L35.6152329,8.79304658 Z" id="Fill-11"></path>
                <path d="M44.5614098,10.8556065 C44.5614098,11.5545719 44.5461351,12.2183597 45.2770429,12.2183597 C46.0637048,12.2183597 45.9491424,11.5545719 45.9491424,10.8556065 L45.9491424,5.61183608 C45.9491424,5.00005016 45.9491424,4.2827311 45.2770429,4.2827311 C44.6041801,4.2827311 44.5614098,5.00005016 44.5614098,5.61183608 L44.5614098,10.8556065 Z M48.2961439,4.85933937 C49.1408507,5.57665839 49.7274101,6.88740983 49.7274101,8.14615943 C49.7274101,9.45691083 49.255413,10.6804827 48.438965,11.5193942 C47.6240447,12.3590704 46.4219031,12.6381978 45.2770429,12.6381978 C44.131419,12.6381978 42.9292778,12.3590704 42.1135935,11.5193942 C41.2986731,10.6804827 40.8259121,9.45691083 40.8259121,8.14615943 C40.8259121,6.88740983 41.4124718,5.57665839 42.2564146,4.85933937 C43.0728626,4.16037393 44.189464,3.86289301 45.2770429,3.86289301 C46.3638581,3.86289301 47.4804599,4.16037393 48.2961439,4.85933937 L48.2961439,4.85933937 Z" id="Fill-13"></path>
                <path d="M60.0639165,6.81758974 C60.0639165,5.6284308 59.7492517,4.92946532 59.2627436,4.92946532 C58.7181901,4.92946532 58.7472126,5.73396386 58.7472126,6.81758974 L58.7472126,9.54386089 C58.7472126,11.1872709 58.9190563,11.607109 59.2772547,11.607109 C59.7347406,11.607109 60.0639165,10.8377882 60.0639165,9.54386089 L60.0639165,6.81758974 Z M64.2431524,11.9565918 L64.2431524,12.3764299 C62.9119375,12.3764299 61.5807225,12.5507889 60.2357602,12.6027907 L60.2357602,11.0121472 C59.7057181,12.1309508 59.105411,12.6379684 58.0315795,12.6379684 C56.0855464,12.6379684 55.0980187,10.4531278 55.0980187,8.30270015 C55.0980187,6.10027072 56.0420128,3.8634283 58.060602,3.8634283 C58.9045452,3.8634283 59.5636606,4.33526822 60.0639165,5.15659087 L60.0639165,0.682141339 L58.9045452,0.682141339 L58.9045452,0.262303228 C60.4358623,0.262303228 61.9534323,0.0527665386 63.4847494,0 L63.4847494,11.9565918 L64.2431524,11.9565918 Z" id="Fill-15"></path>
                <path d="M68.4241452,10.8556065 C68.4241452,11.5545719 68.4096341,12.2183597 69.140542,12.2183597 C69.9272038,12.2183597 69.8126415,11.5545719 69.8126415,10.8556065 L69.8126415,5.61183608 C69.8126415,5.00005016 69.8126415,4.2827311 69.140542,4.2827311 C68.4676788,4.2827311 68.4241452,5.00005016 68.4241452,5.61183608 L68.4241452,10.8556065 Z M72.1596429,4.85933937 C73.0035858,5.57665839 73.5909091,6.88740983 73.5909091,8.14615943 C73.5909091,9.45691083 73.1181484,10.6804827 72.3024641,11.5193942 C71.4875434,12.3590704 70.2854022,12.6381978 69.140542,12.6381978 C67.9949181,12.6381978 66.7927769,12.3590704 65.9770926,11.5193942 C65.1621719,10.6804827 64.6894112,9.45691083 64.6894112,8.14615943 C64.6894112,6.88740983 65.2759705,5.57665839 66.1199137,4.85933937 C66.9363617,4.16037393 68.0529631,3.86289301 69.140542,3.86289301 C70.2273572,3.86289301 71.3439586,4.16037393 72.1596429,4.85933937 L72.1596429,4.85933937 Z" id="Fill-17"></path>
            </g>
            <g id="Group-3-Copy" transform="translate(61.672754, 39.001355)">
                <path d="M5.76315659,7.37418114 L6.34093293,7.37418114 C7.00959543,7.37418114 7.4364358,6.79809862 7.4364358,5.31279702 L7.4364358,2.63795413 C7.4364358,1.78317443 7.19299071,0.78051461 6.25004678,0.78051461 L5.76315659,0.78051461 L5.76315659,7.37418114 Z M0,13.1496317 L0,12.6483018 L1.18638904,12.6483018 L1.18638904,0.78051461 L0.0308363772,0.78051461 L0.0308363772,0.279184697 L7.84623502,0.279184697 C11.1157025,0.279184697 12.2103939,2.26662873 12.2103939,4.04931565 C12.2103939,5.86937885 11.1157025,7.87551104 7.84623502,7.87551104 L5.76315659,7.87551104 L5.76315659,12.6483018 L7.17676105,12.6483018 L7.17676105,13.1496317 L0,13.1496317 Z" id="Fill-19"></path>
                <path d="M16.8512686,11.5344069 C16.8512686,12.2770577 16.8358504,12.9823322 17.6124403,12.9823322 C18.4482684,12.9823322 18.3265458,12.2770577 18.3265458,11.5344069 L18.3265458,5.96290087 C18.3265458,5.31287829 18.3265458,4.55072682 17.6124403,4.55072682 C16.8975232,4.55072682 16.8512686,5.31287829 16.8512686,5.96290087 L16.8512686,11.5344069 Z M20.820235,5.16337309 C21.7169244,5.92552456 22.3409553,7.31819793 22.3409553,8.65561939 C22.3409553,10.0482928 21.8386469,11.3483379 20.9719824,12.2396814 C20.1061294,13.1318374 18.8288542,13.4284102 17.6124403,13.4284102 C16.3952149,13.4284102 15.1179396,13.1318374 14.2512751,12.2396814 C13.3854222,11.3483379 12.8831138,10.0482928 12.8831138,8.65561939 C12.8831138,7.31819793 13.5063332,5.92552456 14.4030226,5.16337309 C15.2704986,4.42072231 16.4568876,4.10464881 17.6124403,4.10464881 C18.7671814,4.10464881 19.9535705,4.42072231 20.820235,5.16337309 L20.820235,5.16337309 Z" id="Fill-21"></path>
                <path d="M27.240531,10.1410022 C27.240531,11.5149875 27.5902804,12.3323908 28.0763591,12.3323908 C28.4561334,12.3323908 28.6395287,11.8863128 28.6395287,10.1410022 L28.6395287,7.24433913 C28.6395287,6.09298664 28.6695536,5.23820694 28.0917773,5.23820694 C27.5748623,5.23820694 27.240531,5.98085772 27.240531,7.24433913 L27.240531,10.1410022 Z M22.8155109,0.724612669 L22.8155109,0.278534674 C24.8231213,0.278534674 26.1150032,0.0567144698 27.240531,0.000650022577 L27.240531,5.47952782 C27.832914,4.60605998 28.4407152,4.10473008 29.3990774,4.10473008 C31.5129922,4.10473008 32.5322156,6.51956396 32.5322156,8.82226893 C32.5322156,11.1997265 31.4829673,13.4284914 29.3536343,13.4284914 C28.2435247,13.4284914 27.6048871,12.8710971 27.0879721,11.7010564 L27.0571357,11.7010564 L27.0571357,13.3911151 C25.9932807,13.3358632 24.1528359,13.1497942 22.8155109,13.1497942 L22.8155109,12.7037162 L23.6213141,12.7037162 L23.6213141,0.724612669 L22.8155109,0.724612669 Z" id="Fill-23"></path>
                <path d="M37.1415237,11.5344069 C37.1415237,12.2770577 37.1252939,12.9823322 37.9018837,12.9823322 C38.7377118,12.9823322 38.6159894,12.2770577 38.6159894,11.5344069 L38.6159894,5.96290087 C38.6159894,5.31287829 38.6159894,4.55072682 37.9018837,4.55072682 C37.1869669,4.55072682 37.1415237,5.31287829 37.1415237,5.96290087 L37.1415237,11.5344069 Z M41.1096784,5.16337309 C42.0071795,5.92552456 42.6303987,7.31819793 42.6303987,8.65561939 C42.6303987,10.0482928 42.1289019,11.3483379 41.2614259,12.2396814 C40.3955729,13.1318374 39.1182976,13.4284102 37.9018837,13.4284102 C36.6846584,13.4284102 35.4073831,13.1318374 34.5407188,12.2396814 C33.6748658,11.3483379 33.1725573,10.0482928 33.1725573,8.65561939 C33.1725573,7.31819793 33.7957768,5.92552456 34.6924663,5.16337309 C35.5599423,4.42072231 36.7463311,4.10464881 37.9018837,4.10464881 C39.0566249,4.10464881 40.2430141,4.42072231 41.1096784,5.16337309 L41.1096784,5.16337309 Z" id="Fill-25"></path>
                <path d="M58.6759452,0.000325011289 L59.2545332,0.000325011289 L59.2545332,4.49523113 L58.8285044,4.49523113 C58.2198916,2.84254873 56.9125915,0.872980322 55.3009849,0.872980322 C53.3087928,0.872980322 53.339629,3.21387413 53.339629,5.0152492 L53.339629,11.0328332 C53.339629,11.7941722 53.3842606,12.9642128 54.2054823,12.9642128 C55.2855668,12.9642128 55.1338193,11.2562785 55.1338193,10.3454343 L55.1338193,7.00269322 L54.2517366,7.00269322 L54.2517366,6.48267518 L60.3492245,6.48267518 L60.3492245,7.00269322 L59.5280031,7.00269322 L59.5280031,11.961553 C58.9039722,11.961553 58.341614,12.0915575 57.7792561,12.3515665 C55.7562272,13.2802863 55.1946806,13.4281664 54.1292029,13.4281664 C50.7542422,13.4281664 48.4277189,10.7906998 48.4277189,6.89056433 C48.4277189,1.98776904 51.6817682,0.000325011289 54.1145961,0.000325011289 C55.2247055,0.000325011289 56.3193971,0.297710341 57.2469227,1.05986181 L58.6759452,0.000325011289 Z" id="Fill-27"></path>
                <path d="M66.2527679,8.61832435 L65.7050165,8.61832435 C64.7620724,8.61832435 64.8837951,9.93705765 64.8837951,10.7910248 C64.8837951,11.329731 64.8529586,12.3323908 65.4615714,12.3323908 C66.2982109,12.3323908 66.2527679,11.1631627 66.2527679,10.4757639 L66.2527679,8.61832435 Z M66.2527679,5.73953684 C66.2527679,4.90425785 66.0856023,4.60605998 65.3861033,4.60605998 C65.1126334,4.60605998 64.7783022,4.64343629 64.7783022,4.8108171 C64.7783022,5.05213798 65.3398487,5.27558325 65.3398487,6.11086226 C65.3398487,7.39221926 64.1234347,7.59697638 63.3184431,7.59697638 C62.5726895,7.59697638 61.6451639,7.22483844 61.6451639,6.1295504 C61.6451639,5.31295955 62.0257497,4.10473008 65.4315466,4.10473008 C66.1919066,4.10473008 67.4383454,4.23473459 68.1678692,4.45817985 C69.172486,4.73687704 69.8111233,5.27558325 69.8111233,6.66825661 L69.8111233,11.6458045 C69.8111233,11.8505616 69.8711733,12.09107 70.0691751,12.09107 C70.3580634,12.09107 70.509811,11.8310609 70.6923947,11.6084282 L70.6923947,12.2576383 C70.1146184,13.0750416 69.172486,13.4284914 68.3204281,13.4284914 C67.4529521,13.4284914 66.7696829,13.1871706 66.373679,12.1471344 C65.6141303,13.1684824 64.5040206,13.4284914 63.4247474,13.4284914 C62.2691948,13.4284914 61.0527808,12.8158451 61.0527808,11.1631627 C61.0527808,9.93705765 61.5843025,8.67357628 63.7128241,8.32093903 C64.3822982,8.20962265 64.8229337,8.17224635 65.5070143,8.17224635 L66.2527679,8.17224635 L66.2527679,5.73953684 Z" id="Fill-29"></path>
                <path d="M71.1509639,13.1499567 L71.1509639,12.7038787 L72.0022105,12.7038787 L72.0022105,0.724775175 L71.1209391,0.724775175 L71.1209391,0.27869718 C72.6408478,0.27869718 74.1615682,0.0568769754 75.6822885,0 L75.6822885,12.7038787 L76.5335348,12.7038787 L76.5335348,13.1499567 L71.1509639,13.1499567 Z" id="Fill-31"></path>
                <path d="M82.1765108,8.89685901 L82.1765108,6.334145 C82.1765108,5.68412242 82.2974218,4.55064555 81.4924302,4.55064555 C80.7929312,4.55064555 80.8692106,5.75806251 80.8692106,6.334145 L80.8692106,8.89685901 L82.1765108,8.89685901 Z M80.8692106,9.34293702 L80.8692106,10.1229641 C80.8692106,11.6082657 81.0972376,12.7783063 82.510842,12.7783063 C83.6363698,12.7783063 84.6555933,11.905651 85.2934193,10.8282386 L85.5823076,11.0695595 C84.6701997,12.6856781 83.3929247,13.4283289 81.7512933,13.4283289 C80.8692106,13.4283289 80.0780141,13.3535763 79.2567927,12.926999 C77.9649107,12.2582883 77.037385,10.9582431 77.037385,8.7668545 C77.037385,5.79543879 79.0441838,4.1053801 81.3406826,4.1053801 C83.970701,4.1053801 85.7957275,6.05544784 85.7648913,9.34293702 L80.8692106,9.34293702 Z" id="Fill-33"></path>
                <path d="M91.3326424,5.79511379 C91.3326424,4.71851389 91.0591725,4.51375677 90.6339551,4.51375677 C90.2533693,4.51375677 89.9490632,4.84770589 89.9490632,5.79511379 L89.9490632,8.4699567 C89.9490632,9.17523117 90.2996239,9.3799883 90.5877005,9.3799883 C91.1500587,9.3799883 91.3326424,9.08260297 91.3326424,8.4699567 L91.3326424,5.79511379 Z M88.641763,14.3014718 C88.4283428,14.2275317 88.170291,15.0441225 88.170291,15.3041316 C88.170291,16.5481123 89.5692887,16.6976175 90.3142306,16.6976175 C91.0291477,16.6976175 93.7963069,16.567613 93.7963069,15.3236322 C93.7963069,14.8028017 93.7354455,14.5801689 91.6832034,14.5801689 C90.3142306,14.5801689 89.2804007,14.5241045 88.641763,14.3014718 L88.641763,14.3014718 Z M88.9460694,9.69524925 C88.6725992,9.69524925 88.3066201,9.78787748 88.3066201,10.1965792 C88.3066201,10.7352854 89.5238457,10.7726617 89.7664791,10.7726617 L92.2755865,10.7726617 C93.7654704,10.7726617 95.0281389,11.645317 95.0281389,13.7067011 C95.0281389,15.4162605 93.9934973,17.2355112 90.4968143,17.2355112 C87.2581834,17.2355112 86.4669869,16.0289068 86.4669869,15.3236322 C86.4669869,14.2827836 87.5925147,14.1527791 88.2011272,14.1714672 L88.2311523,14.1349035 C87.4099307,13.8367056 86.4978231,13.0940548 86.4978231,11.9061386 C86.4978231,10.36396 87.3799058,9.6391848 88.5354584,9.47261653 L88.5354584,9.43524023 C87.530842,9.06391483 86.6804071,8.22782327 86.6804071,6.85383807 C86.6804071,4.6616369 89.1132351,4.10505507 90.4813962,4.10505507 C90.9682864,4.10505507 91.4543651,4.14243138 91.9412553,4.21718399 C92.2609798,3.28765171 93.0205284,2.35893193 93.9026112,2.35893193 C94.511224,2.35893193 95.1652797,2.71238171 95.1652797,3.58503703 C95.1652797,4.36506412 94.7538574,4.68113759 94.160663,4.68113759 C93.7808888,4.68113759 93.3548597,4.32768782 93.3548597,3.82635792 C93.3548597,3.64110148 93.4457459,3.30633984 93.4457459,3.26977609 C93.4311391,3.19502348 93.4011143,3.13895903 93.3402529,3.13895903 C92.9296423,3.13895903 92.4890067,3.86373419 92.3818908,4.3098122 C93.4920005,4.71851389 94.5712736,5.40591278 94.5712736,7.02121886 C94.5712736,9.36130016 92.4281454,9.69524925 90.9374502,9.69524925 L88.9460694,9.69524925 Z" id="Fill-35"></path>
                <path d="M99.668608,11.5344069 C99.668608,12.2770577 99.6523782,12.9823322 100.428968,12.9823322 C101.264796,12.9823322 101.143074,12.2770577 101.143074,11.5344069 L101.143074,5.96290087 C101.143074,5.31287829 101.143074,4.55072682 100.428968,4.55072682 C99.7140509,4.55072682 99.668608,5.31287829 99.668608,5.96290087 L99.668608,11.5344069 Z M103.636763,5.16337309 C104.534264,5.92552456 105.157483,7.31819793 105.157483,8.65561939 C105.157483,10.0482928 104.655986,11.3483379 103.78851,12.2396814 C102.922657,13.1318374 101.645382,13.4284102 100.428968,13.4284102 C99.2117427,13.4284102 97.9344674,13.1318374 97.0678031,12.2396814 C96.2019498,11.3483379 95.6996416,10.0482928 95.6996416,8.65561939 C95.6996416,7.31819793 96.3228612,5.92552456 97.2195503,5.16337309 C98.0870263,4.42072231 99.2734154,4.10464881 100.428968,4.10464881 C101.583709,4.10464881 102.770098,4.42072231 103.636763,5.16337309 L103.636763,5.16337309 Z" id="Fill-37"></path>
            </g>
        </g>
    </g>
</svg>