<?xml version="1.0" encoding="utf-8"?>
<!-- Generator: Adobe Illustrator 25.4.1, SVG Export Plug-In . SVG Version: 6.00 Build 0)  -->
<svg version="1.1" id="Layer_1" xmlns="http://www.w3.org/2000/svg" xmlns:xlink="http://www.w3.org/1999/xlink" x="0px" y="0px"
	 viewBox="0 0 400 400" style="enable-background:new 0 0 400 400;" xml:space="preserve">
<style type="text/css">
	.st0{fill:#010101;}
</style>
<g>
	<path class="st0" d="M148.7,161.8c1.8,3.2,4.2,5.8,7,7.8c2.9,2,6.2,3.5,9.9,4.5c3.7,1,7.6,1.4,11.6,1.4c2.9,0,5.9-0.3,9.1-1
		c3.2-0.7,6-1.7,8.6-3.2c2.6-1.4,4.7-3.4,6.5-5.8c1.7-2.4,2.6-5.4,2.6-9.1c0-6.1-4.1-10.7-12.2-13.8c-8.2-3.1-19.5-6.1-34.1-9.2
		c-5.9-1.3-11.8-2.9-17.4-4.8c-3.1-1-5.9-2.2-8.6-3.5v25.2H146C146,154.9,146.9,158.6,148.7,161.8"/>
	<path class="st0" d="M222,58.2c2.2,1.6,4.2,3.4,6.1,5.3c1.3,1.3,2.5,2.8,3.7,4.3c0.7,0.9,1.4,1.9,2.1,2.9c0.6,0.9,1.1,1.9,1.6,2.8
		c1.6,3.1,2.9,6.5,3.8,10.3c0,0,0,0,0,0.1c0,0,0,0.1,0,0.1c0.7,3,1.2,6.2,1.5,9.6h-38.8c-0.4-5-1.7-9-4-11.9c-1.3-1.7-2.9-3-4.9-4.1
		c-0.7-0.4-1.5-0.7-2.3-1.1c-4.8-2.1-10.4-3.1-16.7-3.1c-1.4,0-3,0.1-4.6,0.2c-1,0.1-1.9,0.1-2.9,0.2c-2.7,0.3-5.1,0.9-7.3,1.9
		c-0.2,0.1-0.3,0.2-0.5,0.2c-2,0.9-3.7,2.2-5.1,3.9c-1.5,1.8-2.3,4.3-2.3,7.3c0,3.7,1.3,6.6,4,8.9c0.5,0.4,1,0.8,1.5,1.2
		c1.8,1.3,4,2.5,6.5,3.5c0.8,0.3,1.6,0.7,2.5,0.9c1.7,0.6,3.4,1.1,5.3,1.6c2,0.5,4,1.1,6.2,1.6c1.1,0.2,2.2,0.5,3.3,0.7
		c1.5,0.3,3,0.6,4.5,1c3,0.6,5.9,1.3,9,2c1.2,0.3,2.3,0.5,3.4,0.8c1.2,0.3,2.4,0.6,3.6,0.9c4.7,1.2,9.3,2.5,13.8,4
		c2.8,0.9,5.4,2,7.8,3.2c2.6,1.3,5,2.7,7.3,4.4c1.1,0.8,2.1,1.6,3.1,2.5c3,2.7,5.5,5.7,7.5,9.3c0.1,0.3,0.3,0.5,0.4,0.8
		c2.4,4.6,3.6,10.1,3.6,16.6c0,9.8-2,18-5.9,24.6c-0.9,1.6-2,3.1-3,4.5c-1.1,1.5-2.3,2.9-3.6,4.2c-2.6,2.7-5.5,5.2-8.8,7.2
		c-4.6,2.9-9.6,5.2-15.1,6.8c-2.1,0.6-4.3,1.2-6.6,1.7c-2,0.4-4,0.7-6,1.1c-2.2,0.3-4.4,0.6-6.7,0.8c-4,0.4-8.1,0.6-12.2,0.6
		c-8.6,0-17.1-0.9-25.3-2.6c-7.4-1.6-14-4.2-20-7.6v150.2h218.7V58.2H222z"/>
	<path class="st0" d="M109.4,327.6c1.1-0.6,2-1.5,2.7-2.5c0.7-1,1.2-2.2,1.6-3.5c0.3-1.3,0.5-2.7,0.5-4.1c0-1-0.1-2.1-0.4-3.2
		c-0.2-1.1-0.6-2.1-1.1-3c-0.5-0.9-1.2-1.7-2-2.3c-0.8-0.6-1.9-0.9-3.2-0.9c-2.1,0-3.8,1.4-4.8,4.3c-1.1,2.8-2.1,6.8-3.2,11.9
		c-0.5,2.1-1,4.1-1.7,6.1c-0.6,2-1.5,3.7-2.5,5.3c-1,1.5-2.4,2.8-3.9,3.7c-1.6,0.9-3.5,1.4-5.8,1.4c-3.4,0-6.1-0.7-8.2-2
		c-2.1-1.3-3.8-3-5.1-5.2c-1.2-2.1-2.1-4.6-2.6-7.2c-0.5-2.7-0.8-5.4-0.8-8.3c0-2.8,0.3-5.5,0.8-8.2c0.5-2.7,1.4-5,2.7-7.1
		c1.3-2.1,3-3.8,5.1-5.2c2.1-1.4,4.8-2.2,8-2.5v13.6c-2.8,0.2-4.6,1.2-5.6,3.1c-1,1.9-1.5,4.1-1.5,6.6c0,0.8,0,1.7,0.1,2.6
		c0.1,0.9,0.3,1.8,0.7,2.6c0.3,0.8,0.8,1.4,1.5,2c0.6,0.5,1.5,0.8,2.6,0.8c1.3,0,2.3-0.5,3.1-1.4c0.8-0.9,1.5-2.2,2-3.7
		c0.5-1.5,0.9-3.2,1.4-5.2c0.4-1.9,0.8-3.9,1.3-5.9c0.5-2.1,1.1-4.1,1.7-6.1c0.7-2,1.6-3.7,2.7-5.3c1.1-1.5,2.5-2.8,4.1-3.7
		c1.6-0.9,3.7-1.4,6.1-1.4c3.4,0,6.3,0.7,8.6,2.1c2.3,1.4,4.2,3.2,5.6,5.4c1.4,2.2,2.4,4.7,3,7.6c0.6,2.9,0.8,5.8,0.8,8.7
		c0,3-0.3,6-0.9,8.9c-0.6,2.9-1.6,5.5-3,7.7c-1.4,2.2-3.3,4.1-5.6,5.5c-2.3,1.4-5.2,2.2-8.7,2.4v-13.6
		C106.9,328.5,108.3,328.2,109.4,327.6"/>
	<path class="st0" d="M82.4,257.6c-1.9,1.7-2.8,4.3-2.8,7.8c0,2.3,0.4,4.2,1.2,5.7c0.8,1.5,1.7,2.7,2.9,3.6c1.1,0.9,2.4,1.5,3.6,1.9
		c1.3,0.4,2.4,0.6,3.4,0.7V254C87.1,254.7,84.3,255.9,82.4,257.6 M109.8,273.8c2.1-2.2,3.1-5.2,3.1-9.3c0-2.9-0.7-5.4-2.2-7.4
		c-1.4-2.1-3-3.4-4.6-3.8v-12.6c6.2,2,10.7,5.1,13.4,9.3c2.7,4.2,4,9.2,4,15.1c0,4.1-0.7,7.8-2,11.1c-1.3,3.3-3.2,6.1-5.6,8.4
		c-2.4,2.3-5.3,4-8.7,5.3c-3.4,1.2-7.1,1.9-11.1,1.9c-3.9,0-7.5-0.6-10.9-1.9c-3.4-1.3-6.2-3.1-8.7-5.4c-2.5-2.4-4.4-5.2-5.8-8.4
		c-1.4-3.3-2.1-6.9-2.1-10.8c0-4.4,0.9-8.3,2.6-11.6c1.7-3.3,4-6,6.9-8.1c2.9-2.1,6.2-3.6,9.9-4.6c3.7-0.9,7.5-1.3,11.6-1v37.5
		C104.4,277.1,107.7,275.9,109.8,273.8"/>
	<path class="st0" d="M70.3,222h9.7v-0.2c-1.6-0.7-3.1-1.6-4.5-2.7c-1.4-1.1-2.6-2.4-3.5-3.9c-1-1.5-1.7-3-2.3-4.7
		c-0.5-1.7-0.8-3.4-0.8-5.2c0-0.9,0.2-2,0.5-3.1h13.3c-0.1,0.7-0.2,1.5-0.4,2.4c-0.1,0.9-0.1,1.8-0.1,2.7c0,2.6,0.4,4.8,1.3,6.6
		c0.9,1.8,2.1,3.3,3.6,4.4c1.5,1.1,3.3,1.9,5.3,2.4c2,0.5,4.2,0.7,6.5,0.7h23.4v14.3h-52V222z"/>
	<path class="st0" d="M64.4,183.8h57.9v14.3H64.4V183.8z M62.2,198.1H50.5v-14.3h11.8V198.1z"/>
	<rect x="50.4" y="165.8" class="st0" width="71.9" height="14.3"/>
	<path class="st0" d="M122.3,126.4h-7.2v0.3c3,1.8,5.2,4.2,6.5,7c1.3,2.9,2,5.8,2,8.9c0,3.8-0.5,7-1.5,9.4c-1,2.4-2.4,4.4-4.3,5.8
		c-1.8,1.4-4.1,2.4-6.7,3c-2.7,0.6-5.6,0.9-8.8,0.9h-32v-14.3h29.4c4.3,0,7.5-0.7,9.6-2c2.1-1.3,3.2-3.7,3.2-7.1
		c0-3.9-1.2-6.7-3.5-8.5c-2.3-1.7-6.1-2.6-11.4-2.6H70.3v-14.3h52V126.4z"/>
	<path class="st0" d="M98.1,76.6c0.3,0.9,0.5,1.9,0.7,2.9c0.2,1.1,0.4,2.1,0.5,3.3c0.1,1.1,0.3,2.3,0.5,3.4c0.2,1.1,0.5,2.1,0.8,3.2
		c0.3,1,0.8,2,1.4,2.7c0.6,0.8,1.3,1.4,2.2,1.9c0.9,0.5,2,0.7,3.3,0.7c1.3,0,2.3-0.2,3.2-0.7c0.9-0.5,1.6-1.1,2.1-1.9
		c0.5-0.8,0.9-1.7,1.1-2.8c0.2-1.1,0.3-2.2,0.3-3.3c0-2.8-0.5-5-1.4-6.5c-0.9-1.5-2.1-2.7-3.4-3.4c-1.3-0.7-2.6-1.2-4-1.3
		c-1.3-0.2-2.4-0.2-3.2-0.2h-5.3C97.4,75,97.8,75.7,98.1,76.6 M77.9,104.9c-2.2-1.5-4-3.4-5.3-5.6c-1.3-2.3-2.3-4.8-2.9-7.7
		c-0.6-2.8-0.9-5.7-0.9-8.6c0-2.6,0.2-5.3,0.6-8c0.4-2.7,1.1-5.1,2.2-7.3c1.1-2.2,2.6-4,4.5-5.4c1.9-1.4,4.4-2.1,7.6-2.1h27.1
		c2.3,0,4.6-0.1,6.7-0.4c2.2-0.3,3.8-0.7,4.8-1.4v14.5c-0.8,0.3-1.6,0.5-2.5,0.6c-0.8,0.2-1.7,0.3-2.6,0.4c2.4,2.3,4,5,4.9,8.1
		c0.9,3.1,1.4,6.2,1.4,9.5c0,2.5-0.3,4.8-0.9,6.9c-0.6,2.1-1.5,4-2.8,5.6c-1.3,1.6-2.9,2.9-4.8,3.8c-1.9,0.9-4.3,1.4-6.9,1.4
		c-3,0-5.4-0.5-7.3-1.5c-1.9-1-3.4-2.4-4.6-4c-1.1-1.6-2-3.5-2.6-5.6c-0.6-2.1-1-4.2-1.4-6.4s-0.6-4.3-0.8-6.3
		c-0.2-2.1-0.5-3.9-0.9-5.5c-0.4-1.6-1-2.9-1.8-3.8c-0.8-0.9-1.9-1.4-3.4-1.3c-1.5,0-2.8,0.2-3.7,0.7c-0.9,0.5-1.6,1.2-2.1,2
		c-0.5,0.8-0.8,1.8-1,2.9c-0.2,1.1-0.2,2.3-0.2,3.6c0,2.8,0.6,5,1.8,6.6c1.2,1.6,3.2,2.6,6,2.8v14.3
		C82.9,107.2,80.1,106.3,77.9,104.9"/>
</g>
</svg>
