<?xml version="1.0" encoding="UTF-8"?>
<svg width="279px" height="28px" viewBox="0 0 279 28" version="1.1" xmlns="http://www.w3.org/2000/svg" xmlns:xlink="http://www.w3.org/1999/xlink">
    <title>xunta</title>
    <g id="xunta" stroke="none" stroke-width="1" fill="none" fill-rule="evenodd">
        <g id="Group" transform="translate(0.000000, -0.000000)" fill-rule="nonzero">
            <path d="M0,27.8 L19.4,27.8 L19.4,0 L0,0 L0,27.8 Z M9,2.3 L9.5,2.3 L9.5,1.8 L10,1.8 L10,2.3 L10.5,2.3 L10.5,2.8 L10,2.8 L10,3.3 L9.5,3.3 L9.5,2.8 L9,2.8 L9,2.3 Z M5.5,22.2 L4.6,22.2 L4.6,23.1 L3.7,23.1 L3.7,22.2 L2.8,22.2 L2.8,21.3 L3.7,21.3 L3.7,20.4 L4.6,20.4 L4.6,21.3 L5.5,21.3 L5.5,22.2 Z M5.5,16.7 L4.6,16.7 L4.6,17.6 L3.7,17.6 L3.7,16.7 L2.8,16.7 L2.8,15.8 L3.7,15.8 L3.7,14.9 L4.6,14.9 L4.6,15.8 L5.5,15.8 L5.5,16.7 Z M5.5,11.1 L4.6,11.1 L4.6,12 L3.7,12 L3.7,11.1 L2.8,11.1 L2.8,10.2 L3.7,10.2 L3.7,9.3 L4.6,9.3 L4.6,10.2 L5.5,10.2 L5.5,11.1 Z M10.2,20.8 C10.2,21 10.2,21.1 10.2,21.3 C10.2,22.7 10.6,24 11.4,25 L8.2,25 C8.9,24 9.4,22.7 9.4,21.3 C9.4,21.1 9.4,21 9.4,20.8 C7.8,20.6 6.6,19.2 6.6,17.6 L13.1,17.6 C12.9,19.2 11.7,20.6 10.2,20.8 M11.1,10.2 L11.1,11.1 L10.2,11.1 L10.2,12 L9.3,12 L9.3,11.1 L8.4,11.1 L8.4,10.2 L9.3,10.2 L9.3,9.3 L10.2,9.3 L10.2,10.2 L11.1,10.2 Z M9.7,12.9 C10.7,12.9 11.6,13.7 11.6,14.8 C11.6,15.8 10.8,16.7 9.7,16.7 C8.7,16.7 7.8,15.9 7.8,14.8 C7.8,13.8 8.7,12.9 9.7,12.9 M12.9,8.1 L6.4,8.1 L6.4,7.4 L12.9,7.4 L12.9,8.1 Z M13.6,6.2 L13.3,6.7 L12.4,6.7 L13,5.8 C13.1,5.6 13.1,5.4 13.1,5.3 C13.1,5.1 13,4.9 12.9,4.8 C12.7,4.6 12.5,4.5 12.3,4.5 C12.2,4.5 12.1,4.5 12.1,4.5 L12.1,4.5 C12.2,4.7 12.2,4.9 12.2,5 C12.2,5.3 12.2,5.6 12,5.8 L11.6,6.7 L10.8,6.7 L11.5,5.5 C11.6,5.4 11.6,5.2 11.6,5 C11.6,4.8 11.5,4.6 11.4,4.4 C11.2,4.2 11,4.1 10.8,4.1 C10.5,4.1 10.3,4.2 10.2,4.4 L10.2,6.7 L9.5,6.7 L9.5,4.4 C9.4,4.2 9.2,4.1 8.9,4.1 C8.7,4.1 8.5,4.2 8.3,4.4 C8.1,4.6 8.1,4.8 8.1,5 C8.1,5.2 8.1,5.4 8.2,5.5 L8.9,6.7 L8.1,6.7 L7.6,5.9 C7.4,5.6 7.4,5.4 7.4,5.1 C7.4,4.9 7.4,4.8 7.5,4.6 L7.5,4.6 C7.5,4.6 7.4,4.6 7.3,4.6 C7.1,4.6 6.9,4.7 6.7,4.9 C6.6,5 6.5,5.2 6.5,5.4 C6.5,5.5 6.5,5.7 6.6,5.9 L7.2,6.8 L6.3,6.8 L6,6.3 C5.8,6 5.7,5.8 5.7,5.4 C5.7,5 5.9,4.6 6.2,4.3 C6.5,4 6.9,3.8 7.3,3.8 C7.5,3.8 7.7,3.8 7.9,3.9 C7.9,3.9 7.9,3.9 7.9,3.9 C8.2,3.6 8.5,3.5 8.9,3.5 C9.3,3.5 9.6,3.6 9.9,3.8 C10.2,3.6 10.5,3.5 10.9,3.5 C11.3,3.5 11.7,3.6 11.9,3.9 C11.9,3.9 11.9,3.9 11.9,3.9 C12.1,3.8 12.3,3.8 12.5,3.8 C12.9,3.8 13.3,4 13.6,4.3 C13.9,4.6 14.1,4.9 14.1,5.4 C13.9,5.7 13.8,5.9 13.6,6.2 M16.6,22.2 L15.7,22.2 L15.7,23.1 L14.8,23.1 L14.8,22.2 L13.9,22.2 L13.9,21.3 L14.8,21.3 L14.8,20.4 L15.7,20.4 L15.7,21.3 L16.6,21.3 L16.6,22.2 Z M16.6,16.7 L15.7,16.7 L15.7,17.6 L14.8,17.6 L14.8,16.7 L13.9,16.7 L13.9,15.8 L14.8,15.8 L14.8,14.9 L15.7,14.9 L15.7,15.8 L16.6,15.8 L16.6,16.7 Z M16.6,11.1 L15.7,11.1 L15.7,12 L14.8,12 L14.8,11.1 L13.9,11.1 L13.9,10.2 L14.8,10.2 L14.8,9.3 L15.7,9.3 L15.7,10.2 L16.6,10.2 L16.6,11.1 Z" id="Shape" fill="#0868AC"></path>
            <path d="M32.3,20.3 C32.3,23.3 30.6,25 28,25 L24.9,25 L24.9,15.7 L27.8,15.7 C30.6,15.7 32.3,17.4 32.3,20.3 M31,20.3 C31,18 29.7,16.9 27.8,16.9 L26.1,16.9 L26.1,23.9 L27.9,23.9 C29.8,23.9 31,22.7 31,20.3" id="Shape" fill="#0868AC"></path>
            <polygon id="Path" fill="#0868AC" points="40.3 25 34.5 25 34.5 15.7 40.2 15.7 39.9 16.8 35.7 16.8 35.7 19.6 39.4 19.6 39.4 20.8 35.7 20.8 35.7 23.9 39.9 23.9"></polygon>
            <path d="M54,21 C54,23.5 52.4,25.2 49.8,25.2 C47.2,25.2 45.6,23.3 45.6,20.3 C45.6,17.4 47.4,15.5 50.1,15.5 C51.1,15.5 52.4,15.9 53.3,16.5 L53.3,17.9 C52.2,17.2 50.9,16.7 50.1,16.7 C48.2,16.7 46.9,18.1 46.9,20.3 C46.9,22.6 48.1,24.1 49.8,24.1 C51.4,24.1 52.6,23.1 52.7,21.3 L50.1,21.3 L49.7,20.2 L53.9,20.2 C54,20.4 54,20.7 54,21" id="Path" fill="#0868AC"></path>
            <path d="M61.5,22.7 L57.4,22.7 L56.5,25 L55.2,25 L59.1,15.7 L59.9,15.7 L63.8,25 L62.5,25 L61.5,22.7 Z M61,21.6 L59.4,17.5 L57.8,21.6 L61,21.6 Z" id="Shape" fill="#0868AC"></path>
            <polygon id="Path" fill="#0868AC" points="71.3 25 65.4 25 65.4 15.7 66.6 15.7 66.6 23.9 70.9 23.9"></polygon>
            <rect id="Rectangle" fill="#0868AC" x="73" y="15.7" width="1.2" height="9.3"></rect>
            <path d="M76.4,20.3 C76.4,17.4 78,15.5 80.5,15.5 C81.6,15.5 82.7,15.9 83.6,16.5 L83.6,17.9 C82.6,17.1 81.5,16.6 80.5,16.6 C78.9,16.6 77.7,18 77.7,20.2 C77.7,22.5 78.8,24 80.5,24 C81.4,24 82.6,23.5 83.6,22.7 L83.6,24.1 C82.8,24.7 81.6,25.1 80.5,25.1 C77.9,25.2 76.4,23.2 76.4,20.3" id="Path" fill="#0868AC"></path>
            <rect id="Rectangle" fill="#0868AC" x="85.8" y="15.7" width="1.2" height="9.3"></rect>
            <path d="M95,22.7 L90.9,22.7 L90,25 L88.6,25 L92.5,15.7 L93.3,15.7 L97.2,25 L95.9,25 L95,22.7 Z M94.5,21.6 L92.9,17.5 L91.3,21.6 L94.5,21.6 Z" id="Shape" fill="#0868AC"></path>
            <polygon id="Path" fill="#0868AC" points="31.3 12 28.8 8.3 26.3 12 25 12 28.1 7.3 25.1 2.8 26.6 2.8 28.9 6.3 31.2 2.8 32.5 2.8 29.6 7.3 32.7 12"></polygon>
            <path d="M34.3,8.9 L34.3,2.7 L35.6,2.7 L35.6,8.8 C35.6,10.2 36.5,11 37.8,11 C39.1,11 40,10.2 40,8.8 L40,2.7 L41.2,2.7 L41.2,8.9 C41.2,11 39.9,12.2 37.8,12.2 C35.7,12.2 34.3,11 34.3,8.9" id="Path" fill="#0868AC"></path>
            <polygon id="Path" fill="#0868AC" points="50.8 2.8 50.8 12 50.1 12 45 4.9 45 12 43.8 12 43.8 2.8 44.9 2.8 49.6 9.4 49.6 2.8"></polygon>
            <polygon id="Path" fill="#0868AC" points="60.9 3.9 57.6 3.9 57.6 12 56.3 12 56.3 3.9 53 3.9 52.6 2.8 61.3 2.8"></polygon>
            <path d="M67.2,9.8 L63.1,9.8 L62.2,12.1 L60.9,12.1 L64.8,2.8 L65.6,2.8 L69.5,12.1 L68.2,12.1 L67.2,9.8 Z M66.8,8.7 L65.1,4.6 L63.5,8.7 L66.8,8.7 Z" id="Shape" fill="#0868AC"></path>
            <path d="M175.8,7.8 C175.1,6.9 174.3,6.1 173.4,5.4 C169.3,10.7 163.6,17 158.3,22.3 C158.5,22.5 158.7,22.7 158.9,22.9 C164.2,17.5 170.3,12 175.8,7.8" id="Path" fill="#BF0001"></path>
            <path d="M178,13.6 C177.9,12.4 177.6,11.3 177.2,10.3 C172.3,12.2 165.1,17.2 159.2,23.1 C161.2,24.8 163.8,25.9 166.7,25.9 C170.4,25.9 173.6,24.2 175.7,21.5 C171.7,20.6 166.2,20.1 162.4,23.6 C162.4,23.6 162.2,23.8 161.8,24.2 C161.8,24.2 161.7,24.2 161.6,24.2 C161.5,24.2 161.4,24.2 161.4,24.2 C162.9,22.5 164.7,21.3 166.7,20.5 C169.6,19.4 173.1,18.8 177.1,19.1 C177.4,18.3 177.7,17.4 177.8,16.6 C174.3,16.8 171.2,17.5 168.3,18.7 C165.3,19.9 162.9,21.3 160.3,23.9 C160.2,23.8 160,23.8 159.9,23.7 L161.4,22.2 C165.7,17.9 172,14.8 178,13.6 M169,22 C169.6,22 170.2,22.1 170.8,22.2 C171.8,22.4 173.1,22.9 173.9,23.3 C172.9,23.6 171.1,23.9 169.4,23.4 C167.9,22.9 166.4,22.9 165,23.4 C164.5,23.6 164.1,23.8 163.7,24 C163.7,24 163.5,24 163.3,24.1 C163.1,24.1 163,24.1 163,24.1 C164.5,22.7 166.7,22 169,22" id="Shape" fill="#BF0001"></path>
            <path d="M167.6,3.2 C166.4,9.2 163.2,15.5 159,19.8 L157.6,21.2 C157.5,21.1 157.5,21 157.4,20.8 C162,16.2 164.3,10.3 164.7,3.3 C163.8,3.5 163,3.7 162.1,4 C162.4,8.1 161.8,11.5 160.7,14.4 C159.9,16.5 158.6,18.4 157.1,19.8 C157.1,19.8 157.1,19.7 157,19.5 C157,19.4 157,19.3 157,19.3 C157.2,19 157.5,18.7 157.5,18.7 C161,15 160.6,9.4 159.7,5.4 C158.9,6 158.4,6.5 157.8,7.3 C158.2,8.1 158.7,9.4 158.9,10.3 C159,10.9 159.1,11.5 159.1,12 C159.1,14.2 158.4,16.4 157,18.1 C157,18.1 157,17.9 157,17.7 C157,17.5 157.1,17.3 157.1,17.3 C157.3,16.9 157.5,16.5 157.7,16.1 C158.2,14.8 158.2,13.1 157.7,11.7 C157.2,10 157.5,8.3 157.8,7.3 C156.2,9.2 155.3,11.7 155.3,14.4 C155.3,17.3 156.4,19.9 158.1,21.9 C163.6,16.2 168.9,9.4 170.9,3.9 C169.9,3.5 168.8,3.3 167.6,3.2" id="Path" fill="#BF0001"></path>
            <polygon id="Path" fill="#4D4D4D" points="190.2 20.4 187.7 16.1 185.2 20.4 183.2 20.4 186.7 14.5 183.5 9 185.5 9 187.8 13 190.1 9 192.1 9 188.8 14.6 192.3 20.4"></polygon>
            <path d="M200.2,12.8 L200.2,20.5 L198.6,20.5 L198.6,19.9 C198.1,20.4 197.3,20.7 196.6,20.7 C194.3,20.7 192.8,18.9 192.8,16.3 C192.8,13.9 194.3,12.1 196.7,12.1 C197.9,12.1 198.9,12.8 199.7,12.8 L200.2,12.8 L200.2,12.8 Z M194.5,16.2 C194.5,18 195.3,19 196.7,19 C197.5,19 198.2,18.6 198.7,18 L198.7,14 C198.2,13.9 197.5,13.4 196.8,13.4 C195.4,13.6 194.5,14.7 194.5,16.2" id="Shape" fill="#4D4D4D"></path>
            <path d="M203.6,14.8 L203.6,17.7 C204,18.5 204.8,19.1 205.7,19.1 C206.6,19.1 207.4,18.5 207.8,17.7 L209.2,18.5 C208.6,19.8 207.3,20.6 205.7,20.6 C204.1,20.6 202.8,19.6 202,18 L202,14.4 C202.8,12.8 204.1,11.9 205.7,11.9 C207.4,11.9 208.6,12.7 209.2,14 L207.8,14.8 C207.4,14 206.7,13.4 205.7,13.4 C204.8,13.5 204,14 203.6,14.8" id="Path" fill="#4D4D4D"></path>
            <path d="M218.3,16.2 C218.3,18.8 216.7,20.6 214.3,20.6 C211.9,20.6 210.3,18.8 210.3,16.2 C210.3,13.7 211.9,12 214.3,12 C216.7,12 218.3,13.7 218.3,16.2 M214.2,13.5 C212.7,13.5 211.8,14.5 211.8,16.2 C211.8,18 212.7,19.1 214.2,19.1 C215.7,19.1 216.5,18 216.5,16.2 C216.6,14.6 215.7,13.5 214.2,13.5" id="Shape" fill="#4D4D4D"></path>
            <path d="M223.5,12 C225.8,12 227.2,13.7 227.2,16.2 C227.2,18.8 225.8,20.6 223.5,20.6 C222.7,20.6 222,20.4 221.4,19.9 L221.4,20.4 L219.8,20.4 L219.8,9 L221.4,9 L221.4,12.9 C222,12.5 222.7,12 223.5,12 M223.4,13.6 C222.7,13.6 222.1,14.2 221.4,14.5 L221.4,18.3 C221.9,18.7 222.6,19.1 223.4,19.1 C224.7,19.1 225.5,18 225.5,16.3 C225.5,14.6 224.7,13.6 223.4,13.6" id="Shape" fill="#4D4D4D"></path>
            <path d="M228.6,16.2 C228.6,13.7 230.1,12 232.4,12 C234.7,12 236.1,13.7 236.1,16.3 L236.1,16.7 L230.3,16.7 C230.4,18.1 231.3,19.1 232.6,19.1 C233.4,19.1 234.1,18.7 234.5,18.1 L235.9,18.9 C235.2,20 233.9,20.6 232.5,20.6 C230.1,20.7 228.6,18.8 228.6,16.2 M234.3,15.4 C234.3,14.4 233.6,13.5 232.4,13.5 C231.2,13.5 230.4,14.4 230.3,15.4 L234.3,15.4 Z" id="Shape" fill="#4D4D4D"></path>
            <path d="M245.5,16.2 C245.5,18.8 243.9,20.6 241.5,20.6 C239.1,20.6 237.5,18.8 237.5,16.2 C237.5,13.7 239.1,12 241.5,12 C243.9,12 245.5,13.7 245.5,16.2 M241.4,13.5 C239.9,13.5 239,14.5 239,16.2 C239,18 239.9,19.1 241.4,19.1 C242.9,19.1 243.7,18 243.7,16.2 C243.8,14.6 242.9,13.5 241.4,13.5" id="Shape" fill="#4D4D4D"></path>
            <path d="M251,18.9 L255.5,18.9 L255.5,20.4 L249.3,20.4 L249.3,19.6 C249.3,17.5 250.4,16.3 251.9,15.2 C252.8,14.5 253.6,13.9 253.6,13.1 C253.6,12.4 253,11.8 252.2,11.8 C251.5,11.8 250.9,12.4 250.5,13.1 L249.1,12.3 C249.7,11.1 250.8,10.2 252.2,10.2 C253.9,10.2 255.2,11.4 255.2,13 C255.2,14.6 254.1,15.4 252.9,16.2 C252,17.1 251.1,17.9 251,18.9" id="Path" fill="#4D4D4D"></path>
            <path d="M267.2,18.9 L271.7,18.9 L271.7,20.4 L265.5,20.4 L265.5,19.6 C265.5,17.5 266.6,16.3 268.1,15.2 C269,14.5 269.8,13.9 269.8,13.1 C269.8,12.4 269.2,11.8 268.4,11.8 C267.7,11.8 267.1,12.4 266.7,13.1 L265.3,12.3 C265.9,11.1 267,10.2 268.4,10.2 C270.1,10.2 271.4,11.4 271.4,13 C271.4,14.6 270.3,15.4 269.1,16.2 C268.1,17.1 267.3,17.9 267.2,18.9" id="Path" fill="#4D4D4D"></path>
            <path d="M274.6,18.9 L279.1,18.9 L279.1,20.4 L272.9,20.4 L272.9,19.6 C272.9,17.5 274,16.3 275.5,15.2 C276.4,14.5 277.2,13.9 277.2,13.1 C277.2,12.4 276.6,11.8 275.8,11.8 C275.1,11.8 274.5,12.4 274.1,13.1 L272.7,12.3 C273.3,11.1 274.4,10.2 275.8,10.2 C277.5,10.2 278.8,11.4 278.8,13 C278.8,14.6 277.7,15.4 276.5,16.2 C275.5,17.1 274.6,17.9 274.6,18.9" id="Path" fill="#4D4D4D"></path>
            <polygon id="Path" fill="#4D4D4D" points="260.1 10.6 260.1 20.4 258.5 20.4 258.5 12.6 257.2 13.5 256.4 12.3 258.9 10.6"></polygon>
            <path d="M264.1,15.4 C264.1,16 263.6,16.5 263,16.5 C262.4,16.5 261.9,16 261.9,15.4 C261.9,14.8 262.4,14.3 263,14.3 C263.6,14.3 264.1,14.8 264.1,15.4" id="Path" fill="#4D4D4D"></path>
        </g>
    </g>
</svg>