<svg xmlns="http://www.w3.org/2000/svg" width="19.413" height="19.413" viewBox="0 0 19.413 19.413">
  <path id="Trazado_382" data-name="Trazado 382" d="M1694.631,24.159h-17.239a1.079,1.079,0,0,0-1.087,1.087V42.485a1.079,1.079,0,0,0,1.087,1.087h9.277V36.064h-2.528V33.132h2.528V30.958a3.772,3.772,0,0,1,1.049-2.869,3.814,3.814,0,0,1,2.742-1q.557,0,1.125.025t1.125.1v2.6h-1.542a1.4,1.4,0,0,0-1.188.392,1.779,1.779,0,0,0-.278,1.049v1.87h2.907l-.379,2.932H1689.7v7.508h4.929a1.079,1.079,0,0,0,1.087-1.087V25.246a1.079,1.079,0,0,0-1.087-1.087Z" transform="translate(-1676.305 -24.159)" fill="#fff"/>
</svg>
