<svg xmlns="http://www.w3.org/2000/svg" width="26.218" height="21.312" viewBox="0 0 26.218 21.312">
  <path id="Trazado_383" data-name="Trazado 383" d="M1572.794,29.471v.719a15.893,15.893,0,0,1-3.938,10.3,14.936,14.936,0,0,1-4.781,3.578,14.628,14.628,0,0,1-6.562,1.406,14.84,14.84,0,0,1-4.375-.641,15.31,15.31,0,0,1-3.875-1.8,3.731,3.731,0,0,0,.656.062h.656a10.784,10.784,0,0,0,3.578-.594,10.377,10.377,0,0,0,3.078-1.687,5.186,5.186,0,0,1-3.125-1.078A5.408,5.408,0,0,1,1552.2,37.1l.516.063a4.6,4.6,0,0,0,.515.031,3.983,3.983,0,0,0,.719-.063l.688-.125a5.3,5.3,0,0,1-3.078-1.843,5.181,5.181,0,0,1-1.235-3.438v-.062a7.7,7.7,0,0,0,1.172.468,5.118,5.118,0,0,0,1.266.219,5.31,5.31,0,0,1-1.75-1.906,5.21,5.21,0,0,1-.657-2.563,5.018,5.018,0,0,1,.2-1.437,5.828,5.828,0,0,1,.546-1.281,15.983,15.983,0,0,0,2.219,2.218,14.614,14.614,0,0,0,2.625,1.719,15.7,15.7,0,0,0,3,1.156,15.076,15.076,0,0,0,3.219.532q-.063-.313-.094-.625a6.243,6.243,0,0,1-.031-.625,5.36,5.36,0,0,1,5.375-5.375,5.127,5.127,0,0,1,2.172.468,5.421,5.421,0,0,1,1.734,1.25,11.248,11.248,0,0,0,1.8-.515,9.306,9.306,0,0,0,1.609-.8,5.022,5.022,0,0,1-.89,1.7,5.306,5.306,0,0,1-1.453,1.266,10.29,10.29,0,0,0,1.593-.313,11.66,11.66,0,0,0,1.5-.531,12.335,12.335,0,0,1-1.234,1.515A10.441,10.441,0,0,1,1572.794,29.471Z" transform="translate(-1549.263 -24.159)" fill="#fff"/>
</svg>
