<svg xmlns="http://www.w3.org/2000/svg" width="105.985" height="40.241" viewBox="0 0 105.985 40.241">
  <g id="Grupo_246" data-name="Grupo 246" transform="translate(-76.106 -14.694)">
    <g id="Grupo_243" data-name="Grupo 243">
      <path id="Trazado_384" data-name="Trazado 384" d="M139.094,54.392l-3.046-7.831H119.19l-2.99,7.831h-7.016l12.943-32.9L113.535,20.4V15.238h28.658V20.4l-8.537,1.088,13.051,32.9Zm-17.51-14.084h12.072l-5.982-16.8h-.109Z" fill="#fff"/>
    </g>
    <g id="Grupo_244" data-name="Grupo 244">
      <path id="Trazado_385" data-name="Trazado 385" d="M109.223,34.815c0,12.453-8.755,19.577-19.631,19.577H76.106V15.238H89.592C100.468,15.238,109.223,22.362,109.223,34.815ZM83.175,21.492V48.138h6.417c6.8,0,12.562-4.133,12.562-13.323,0-8.7-5.71-13.323-12.562-13.323Z" fill="#fff"/>
    </g>
    <g id="Grupo_245" data-name="Grupo 245">
      <path id="Trazado_386" data-name="Trazado 386" d="M164.146,33.183h17.945V47.1c-3.426,4.894-9.136,7.83-16.042,7.83-11.747,0-20.121-7.776-20.121-20.12s8.157-20.121,19.74-20.121c7.287,0,13.486,3.589,16.423,9.952l-6.471,2.665a10.52,10.52,0,0,0-9.952-6.363C157.4,20.948,153,26.93,153,34.815s4.622,13.867,13.051,13.867a12.317,12.317,0,0,0,8.973-3.372V39.438H164.146Z" fill="#fff"/>
    </g>
  </g>
</svg>
